<?xml version="1.0" encoding="utf-8"?>
<!-- Generator: Adobe Illustrator 24.0.2, SVG Export Plug-In . SVG Version: 6.00 Build 0)  -->
<svg version="1.1" id="Layer_1" xmlns="http://www.w3.org/2000/svg" xmlns:xlink="http://www.w3.org/1999/xlink" x="0px" y="0px"
	 viewBox="0 0 300 300" style="enable-background:new 0 0 300 300;" xml:space="preserve">
<style type="text/css">
	.st0{fill:#0D0D0D;}
	.st1{fill:#161617;}
	.st2{fill:#090A0A;}
	.st3{fill:#0F1010;}
	.st4{fill:#070707;}
</style>
<g>
	<path class="st4" d="M38.41,163.92c0-25.78-0.05-51.55,0.04-77.33C38.47,81.05,38.57,75.5,39.4,70c0.57-3.75,2.27-7.01,4.28-10.08
		c4.31-6.57,10.33-11.01,17.74-13.57c2.22-0.77,4.55-0.9,6.88-0.98c13.79-0.48,27.59-0.48,41.38-0.68
		c4.85-0.07,9.69-0.17,14.54-0.23c1.85-0.03,1.9,0.03,1.11,1.74c-1.66,3.59-3.41,7.14-5.04,10.74c-0.39,0.87-1,0.79-1.69,0.79
		c-13.56,0-27.13,0-40.69,0c-0.19,0-0.38,0.02-0.56-0.01c-0.86-0.14-1.2,0.21-1.12,1.07c0.04,0.51,0.01,1.02,0.01,1.54
		c0,50.48,0,100.97,0,151.45c0,2.88,0,2.88,2.81,2.88c52.3,0,104.6-0.01,156.9,0.03c1.32,0,1.73-0.27,1.73-1.65
		c-0.04-15.38-0.03-30.77,0.01-46.15c0-1.05-0.27-1.32-1.32-1.32c-9.46-0.07-18.92-0.12-28.38-0.44c-2.67-0.09-4.45-1.07-5.85-3.45
		c-4.32-7.35-8.33-14.84-11.87-22.6c-0.84-1.83-0.85-3.49-0.04-5.34c3.65-8.32,7.84-16.36,12.74-24.02
		c1.04-1.63,2.38-2.47,4.31-2.63c2.14-0.18,4.28-0.2,6.42-0.21c7.69-0.02,15.38-0.02,23.07,0c0.99,0,1.46-0.1,1.45-1.33
		c-0.05-15.57-0.04-31.14,0.01-46.71c0-1.12-0.5-1.16-1.35-1.15c-8.72,0.02-17.43,0.01-26.15,0.01c-1.52,0-1.55-0.02-0.89-1.4
		c1.55-3.28,2.16-6.81,2.71-10.35c0.14-0.91,0.46-1.15,1.32-1.14c10.07,0.08,20.14-0.16,30.2,0.25c0.88,0.04,1.78,0.11,2.63,0.32
		c1.96,0.48,3.3,1.61,3.66,3.73c0.71,4.16,0.64,8.36,0.66,12.55c0.06,14.5,0.07,28.99,0.04,43.49c0,1.39,0.32,1.93,1.76,1.74
		c0.87-0.12,1.78-0.07,2.65,0.05c3.54,0.5,5.58,2.78,5.85,6.39c0.44,5.91,0.24,11.83,0.24,17.75c0,9.51-0.07,19.02-0.12,28.53
		c-0.01,2.32-1.58,4.31-3.88,4.88c-1.82,0.45-3.7,0.45-5.55,0.5c-1.17,0.03-1.44,0.38-1.45,1.52c-0.06,18.69-0.18,37.38-0.24,56.07
		c0,1.07-0.34,1.81-1.08,2.55c-3.32,3.28-6.65,6.64-8.46,11.01c-4.54,10.91-3.33,21.09,4.41,30.26c1.23,1.46,2.48,2.9,3.78,4.3
		c2.57,2.78,1.49,6.69,0.01,8.93c-0.44,0.67-1.22,0.83-1.95,0.97c-3.35,0.64-6.76,0.75-10.15,0.79
		c-50.57,0.57-101.14,0.28-151.72,0.18c-5.68-0.01-11.38,0.05-17.05-0.4c-8.21-0.65-15.06-4.17-20.77-10.02
		c-4.41-4.53-6.71-10.21-8.66-16.07c-0.17-0.51-0.14-1.11-0.14-1.66c-0.01-29.83-0.01-59.67-0.01-89.5
		C38.49,163.92,38.45,163.92,38.41,163.92z M229.87,267.71c-1.58-2.87-2.79-5.62-3.58-8.55c-1.31-4.88-1.19-9.87-1.2-14.85
		c0-3.4,0-3.4-3.41-3.4c-49.82,0-99.64,0.01-149.46-0.03c-1.7,0-3.16,0.27-4.52,1.36c-1.19,0.96-2.56,1.71-4.13,1.94
		c-1.47,0.22-2.66-0.29-3.57-1.44c-0.92-1.16-1.55-2.54-0.73-3.86c1.68-2.71,3.67-5.22,7.1-5.81c1.65-0.29,3.32-0.47,4.99-0.57
		c7.72-0.45,15.46-0.5,23.2-0.5c43.48-0.05,86.97-0.04,130.45-0.05c3.07,0,3.03-0.02,4.32-2.84c0.51-1.12,0.31-1.4-0.92-1.4
		c-8.25,0-16.5-0.09-24.75-0.09c-26.14,0.01-52.29,0.01-78.43,0.08c-18.17,0.05-36.35,0.11-54.52,0.34
		c-8.25,0.11-14.14,4.36-17.6,11.69c-3.4,7.2-2.43,14.13,2.34,20.49c2.21,2.95,5.28,4.8,8.58,6.29c0.96,0.43,1.85,0.94,3.01,0.94
		c24,0.03,48,0.12,72,0.16c29.45,0.05,58.91,0.06,88.36,0.09C228.14,267.71,228.89,267.71,229.87,267.71z M51.86,181.45
		c0.19-0.11,0.41-0.19,0.59-0.33c4.02-3.31,8.6-5.34,13.75-6.05c1.13-0.16,1.12-0.78,1.12-1.62c-0.03-17.19-0.04-34.39-0.06-51.58
		c-0.01-7.18-0.05-14.35-0.09-21.53c0-0.52,0.26-1.38-0.86-0.9c-5.35,2.26-10.62,4.62-13.87,9.85c-0.49,0.78-0.79,1.51-0.79,2.44
		c0.01,22.88,0,45.76,0,68.64C51.64,180.71,51.53,181.1,51.86,181.45z M230.21,120.31c-5.78,0-11.56,0.02-17.33-0.02
		c-0.85-0.01-1.32,0.24-1.72,1.03c-2.34,4.6-4.74,9.18-7.16,13.73c-0.36,0.68-0.3,1.19,0.02,1.81c2.42,4.61,4.84,9.23,7.23,13.86
		c0.31,0.61,0.69,0.88,1.4,0.88c11.7-0.02,23.39-0.02,35.09,0c0.92,0,1.19-0.29,1.18-1.2c-0.04-9.55-0.05-19.1-0.01-28.66
		c0-1.18-0.35-1.48-1.5-1.47C241.67,120.34,235.94,120.31,230.21,120.31z M51.64,221.22c0.36-0.13,0.5-0.15,0.61-0.22
		c4.32-2.94,8.92-5.21,14.2-5.79c1-0.11,0.86-0.78,0.86-1.41c0-4.52,0-9.04,0-13.56c0-5.35,0-10.71,0-16
		c-0.67-0.21-1.02,0.06-1.39,0.23c-2.85,1.28-5.55,2.83-8.23,4.44c-3.96,2.38-5.94,5.84-5.92,10.51c0.02,6.62-0.08,13.23-0.12,19.85
		C51.64,219.85,51.64,220.44,51.64,221.22z M51.7,95.81c2.22-2.11,4.7-3.45,7.45-4.28c2.19-0.66,4.41-1.15,6.66-1.51
		c0.84-0.14,1.25-0.45,1.25-1.43c0.01-8.38,0.09-16.76,0.12-25.14c0-1.02,0.04-2.04-0.21-3.06c-0.41-1.67-0.75-1.85-2.3-1.18
		c-4.2,1.81-7.38,4.79-9.89,8.54c-1.69,2.52-2.67,5.23-2.82,8.33c-0.2,4.28-0.12,8.56-0.26,12.84C51.64,91.13,51.7,93.34,51.7,95.81
		z"/>
	<path class="st4" d="M200.78,44.68c0.12,2.95-0.89,5.74-2.08,8.49c-4.94,11.5-10.36,22.78-15.66,34.11
		c-11.5,24.61-23.01,49.22-34.78,73.7c-0.61,1.28-1.35,2.38-2.5,3.28c-12.62,9.85-25.45,19.43-38.32,28.96
		c-4.13,3.06-9.98-0.24-10.27-4.89c-0.12-2-0.3-4-0.4-6c-0.63-12.33-1.25-24.66-1.87-36.98c-0.09-1.86-0.15-3.72-0.3-5.58
		c-0.08-1,0.35-1.8,0.74-2.64c7.57-16.18,15.13-32.36,22.72-48.53c9.42-20.09,18.97-40.12,28.4-60.21
		c3.42-7.29,9.07-10.03,16.46-10.14c8.67-0.13,16.53,2.78,23.81,7.31c4.96,3.09,9.29,6.86,12.08,12.12
		C199.95,39.84,200.99,42.03,200.78,44.68z M163.65,31.56c-2.54-0.35-4.08,0.56-5.13,3.01c-1.79,4.19-3.99,8.2-5.96,12.31
		c-14.85,31.05-29.32,62.29-43.98,93.44c-0.39,0.82-0.55,1.64-0.5,2.55c0.37,6.79,0.67,13.58,1.05,20.37
		c0.14,2.5,0.17,5.04,0.81,7.48c0.43,1.67,1.55,2.14,3.07,1.37c0.66-0.33,1.3-0.73,1.91-1.16c7.13-5.08,14.04-10.45,20.96-15.8
		c0.85-0.65,0.91-1.04,0.13-1.8c-2.93-2.87-6.05-5.52-9.27-8.07c-1.42-1.12-3.06-1.74-4.84-1.99c-1.56-0.22-3.13-0.44-4.7-0.59
		c-1.1-0.11-1.48-0.44-0.92-1.56c0.87-1.75,1.61-3.56,2.44-5.33c10.62-22.71,21.23-45.43,31.87-68.13
		c4.18-8.93,8.46-17.82,12.63-26.75c0.52-1.12,1.07-1.29,2.12-0.83c2.55,1.13,5.15,2.17,7.7,3.31c3.99,1.78,7.96,3.62,11.94,5.44
		c0.58,0.26,1.05,0.5,1.49-0.29c1.37-2.46,1.29-4.47-0.68-6.53C179.75,35.68,172.27,32.36,163.65,31.56z"/>
	<path class="st4" d="M234.53,136.35c-0.03,4.56-4.19,8.91-8.5,8.88c-4.89-0.03-9.08-4.09-9.05-8.76c0.03-5.06,3.92-8.92,8.96-8.89
		C230.74,127.61,234.56,131.51,234.53,136.35z"/>
</g>
</svg>
