<?xml version="1.0" encoding="utf-8"?>
<!-- Generator: Adobe Illustrator 24.0.2, SVG Export Plug-In . SVG Version: 6.00 Build 0)  -->
<svg version="1.1" id="Layer_1" xmlns="http://www.w3.org/2000/svg" xmlns:xlink="http://www.w3.org/1999/xlink" x="0px" y="0px"
	 viewBox="0 0 300 300" style="enable-background:new 0 0 300 300;" xml:space="preserve">
<style type="text/css">
	.st0{fill:#0D0D0D;}
	.st1{fill:#161617;}
	.st2{fill:#090A0A;}
	.st3{fill:#0F1010;}
	.st4{fill:#070707;}
	.st5{fill:#131212;}
	.st6{fill:#232121;}
</style>
<g>
	<path class="st0" d="M151.01,18.77c6.29,2.74,12.75,5.05,18.92,8.09c15.49,7.62,29.93,16.72,41.82,29.43
		c10.03,10.72,17.02,23,18.44,37.9c0.99,10.33-0.48,20.41-3.64,30.26c-0.33,1.02-0.84,1.94,0.57,2.79
		c11.43,6.85,16.04,17.54,16.32,30.3c0.59,27.32,0.13,54.65,0.23,81.97c0.05,13.07-0.04,26.13,0.06,39.2
		c0.02,2.03-0.54,2.52-2.54,2.52c-60.81-0.05-121.61-0.05-182.42,0c-2,0-2.54-0.49-2.53-2.52c0.06-39.2,0.02-78.4,0.07-117.6
		c0.01-9,1.43-17.67,6.92-25.21c2.39-3.28,5.21-6.14,8.75-8.13c1.78-1,1.88-1.94,1.31-3.82c-4.32-14.24-5.66-28.6-0.59-42.96
		c4.52-12.81,12.76-23.04,22.88-31.83c15.18-13.19,32.61-22.52,51.4-29.44c0.68-0.25,1.54-0.2,1.99-0.96
		C149.65,18.77,150.33,18.77,151.01,18.77z M146.32,36.1c-3.36,1.08-6.5,2.62-10.02,4.45c0.76,0.57,1.28,0.8,1.56,1.2
		c1.23,1.69,2.27,1.82,3.7,0.08c1.57-1.9,3.43-3.56,5.16-5.32c0.15-0.23,0.72-0.33,0.41-0.69C146.92,35.57,146.51,35.75,146.32,36.1
		z M153.32,35.85c-0.21-0.01-0.55-0.11-0.62-0.02c-0.19,0.27,0.09,0.35,0.3,0.43c1.46,1.53,2.89,3.08,4.37,4.58
		c3.02,3.05,3.03,3.04,5.96-0.64C159.95,38.73,156.63,37.29,153.32,35.85z M118.84,103.26c0.3-0.28,0.67-0.61,1.03-0.97
		c4.41-4.41,8.79-8.85,13.25-13.2c0.99-0.97,0.9-1.49-0.04-2.42c-4.45-4.36-8.86-8.77-13.23-13.22c-0.89-0.91-1.45-1.09-2.44-0.07
		c-4.41,4.52-8.89,8.98-13.4,13.41c-0.92,0.91-0.77,1.44,0.06,2.26c4.5,4.44,8.95,8.93,13.43,13.38
		C117.85,102.77,118.09,103.31,118.84,103.26z M196.71,88.11c0.01-0.77-0.51-1.03-0.85-1.37c-4.46-4.48-8.96-8.92-13.38-13.43
		c-0.91-0.93-1.43-0.79-2.26,0.05c-4.44,4.5-8.88,8.99-13.42,13.4c-1.08,1.05-0.71,1.58,0.14,2.41c4.44,4.38,8.86,8.78,13.22,13.23
		c0.94,0.96,1.47,0.96,2.42-0.01c4.36-4.46,8.79-8.84,13.2-13.25C196.13,88.78,196.45,88.4,196.71,88.11z M181.1,198.09
		c-0.18,0.15-0.45,0.35-0.69,0.58c-4.65,4.65-9.29,9.31-13.97,13.93c-0.85,0.84-0.34,1.28,0.23,1.85c4.53,4.52,9.07,9.04,13.58,13.6
		c0.73,0.74,1.2,0.93,2.04,0.08c4.49-4.57,9.02-9.09,13.59-13.59c0.88-0.86,0.87-1.39-0.01-2.26c-4.51-4.43-8.95-8.92-13.43-13.38
		C182.1,198.56,181.85,198.03,181.1,198.09z M118.61,197.94c-0.35,0.3-0.62,0.5-0.86,0.73c-4.59,4.59-9.16,9.19-13.79,13.75
		c-0.85,0.84-0.65,1.34,0.08,2.07c4.55,4.51,9.09,9.03,13.58,13.59c0.78,0.79,1.24,0.83,2.04,0.02c4.49-4.56,9.02-9.1,13.59-13.58
		c0.91-0.89,0.8-1.39-0.05-2.23c-4.51-4.43-8.95-8.92-13.43-13.39C119.44,198.55,119.03,198.27,118.61,197.94z M134.13,150.69
		c-0.29-0.33-0.49-0.6-0.73-0.84c-4.64-4.65-9.31-9.27-13.91-13.96c-0.92-0.94-1.36-0.42-2,0.22c-4.45,4.48-8.9,8.95-13.41,13.37
		c-0.96,0.94-0.9,1.52,0.03,2.43c4.44,4.36,8.84,8.77,13.21,13.21c0.86,0.88,1.44,1.12,2.43,0.11c4.47-4.57,9.02-9.07,13.54-13.6
		C133.57,151.35,133.82,151.03,134.13,150.69z M181.41,135.13c-0.39,0.34-0.66,0.55-0.9,0.78c-4.65,4.64-9.27,9.3-13.95,13.91
		c-0.79,0.78-0.52,1.19,0.12,1.82c4.54,4.51,9.08,9.01,13.55,13.59c0.99,1.01,1.56,0.77,2.43-0.11c4.37-4.44,8.77-8.85,13.21-13.21
		c0.93-0.91,0.99-1.49,0.03-2.43c-4.51-4.42-8.95-8.91-13.41-13.36C182.15,135.79,181.79,135.47,181.41,135.13z M120.45,64.06
		c0.52,1.55-0.91,3.83,1.02,5.63c1.81,1.68,3.55,3.44,5.23,5.24c0.85,0.91,1.41,0.88,2.25,0c2.3-2.39,4.63-4.76,7.05-7.04
		c1.07-1.01,0.71-1.61-0.16-2.42c-1.67-1.58-3.38-3.14-4.86-4.89c-1.46-1.71-3.12-2.27-5.34-2.21
		C120.45,58.52,120.45,58.42,120.45,64.06z M179.53,112.16c0-5.04,0-5.04-3.56-8.6c-0.85-0.85-1.76-1.63-2.51-2.56
		c-0.96-1.19-1.65-0.97-2.61,0.05c-2.16,2.3-4.39,4.55-6.7,6.7c-1.12,1.04-0.96,1.68,0.07,2.63c1.76,1.62,3.49,3.28,5.06,5.08
		c1.35,1.54,2.83,2.13,4.9,2.08C179.53,117.41,179.53,117.5,179.53,112.16z M120.45,111.29c0,1.97,0,3.33,0,4.7
		c0,0.51-0.03,1.04,0.48,1.37c0.79,0.52,7.73,0.05,8.45-0.65c2.26-2.21,4.47-4.47,6.73-6.68c0.66-0.65,0.85-1.13,0.09-1.88
		c-2.57-2.5-5.08-5.06-7.63-7.59c-0.35-0.35-0.79-0.84-1.26-0.24C124.5,103.87,118.92,105.77,120.45,111.29z M179.53,64.48
		c0-1.76-0.06-3.04,0.02-4.31c0.09-1.34-0.45-1.83-1.78-1.77c-1.7,0.08-3.41,0.06-5.11,0c-1.02-0.04-1.77,0.29-2.48,1.02
		c-2.01,2.08-4.06,4.13-6.14,6.14c-0.78,0.76-1.12,1.3-0.14,2.24c2.47,2.35,4.83,4.8,7.25,7.2c0.39,0.38,0.91,1.18,1.44,0.5
		C175.4,71.97,180.99,70.1,179.53,64.48z M179.53,174.24c0.9-3.02-0.72-5.59-3.44-7.76c-0.99-0.79-1.89-1.74-2.71-2.71
		c-0.84-0.99-1.46-1.09-2.42-0.07c-2.22,2.36-4.53,4.64-6.88,6.88c-0.93,0.88-1.07,1.5-0.06,2.43c1.76,1.62,3.51,3.26,5.06,5.07
		c1.4,1.63,2.95,2.2,5.1,2.14C179.53,180.06,179.53,180.16,179.53,174.24z M205.13,215.26c-3.2-0.96-5.92,0.72-8.19,3.62
		c-0.73,0.93-1.61,1.78-2.53,2.53c-1.11,0.91-0.85,1.55,0.07,2.43c2.34,2.24,4.64,4.52,6.86,6.88c0.97,1.03,1.58,0.84,2.44-0.08
		c1.63-1.74,3.26-3.51,5.07-5.05c1.66-1.4,2.18-2.97,2.12-5.11C210.83,215.26,210.93,215.26,205.13,215.26z M125.12,180.16
		c1.22-0.44,3.02,0.72,4.48-0.82c2.11-2.23,4.3-4.39,6.51-6.51c0.82-0.78,0.77-1.29-0.03-2.05c-1.98-1.88-3.87-3.85-5.81-5.78
		c-2.44-2.44-2.31-2.29-4.94-0.01c-3.37,2.92-5.62,5.97-5,10.89C120.87,180.11,120.45,180.16,125.12,180.16z M120.45,189.32
		c0.46,1.6-0.87,3.8,0.81,5.53c1.83,1.9,3.76,3.71,5.56,5.62c0.78,0.82,1.28,0.78,2.04-0.01c2.3-2.39,4.63-4.75,7.05-7.03
		c1.04-0.98,0.81-1.59-0.09-2.44c-1.67-1.57-3.38-3.13-4.86-4.88c-1.5-1.79-3.2-2.4-5.53-2.31
		C120.45,183.98,120.45,183.86,120.45,189.32z M95.11,215.26c-6.06,0-6.06,0-6.06,5.45c0,0.51,0.03,1.03-0.01,1.53
		c-0.06,0.82,0.22,1.45,0.81,2.04c2.19,2.14,4.37,4.31,6.51,6.51c0.7,0.72,1.22,0.99,2.06,0.11c2.42-2.52,4.93-4.96,7.4-7.43
		c0.42-0.42,0.99-0.89,0.28-1.46C102.57,219.18,100.62,213.63,95.11,215.26z M94.25,148.76c5.13,0,5.13,0,8.8-3.66
		c0.84-0.84,1.63-1.76,2.55-2.51c1.08-0.88,0.93-1.59,0.03-2.47c-2.38-2.32-4.73-4.67-7.05-7.06c-0.76-0.78-1.27-0.82-2.04,0
		c-1.75,1.86-3.49,3.75-5.44,5.4c-1.67,1.41-2.15,3.01-2.09,5.12C89.14,148.76,89.05,148.76,94.25,148.76z M204.89,148.76
		c6.03,0,6.05,0,6.01-5.49c-0.01-1.22,0.34-2.5-0.81-3.57c-2.24-2.09-4.38-4.29-6.51-6.5c-0.73-0.75-1.25-0.91-2.06-0.07
		c-2.42,2.52-4.93,4.96-7.4,7.43c-0.44,0.44-0.93,0.91-0.23,1.47C197.42,144.87,199.41,150.38,204.89,148.76z M179.53,189.91
		c0-6.05,0-6.05-5.47-6.05c-0.51,0-1.03,0.04-1.53-0.01c-0.93-0.1-1.59,0.27-2.24,0.93c-2.08,2.14-4.2,4.24-6.34,6.33
		c-0.68,0.67-1.07,1.17-0.15,2.05c2.53,2.42,4.96,4.93,7.44,7.4c0.4,0.4,0.87,1.06,1.45,0.32
		C175.48,197.32,181.06,195.4,179.53,189.91z M189.67,120.98c-1.57,0.07-2.85,0.28-4.11,0.16c-1.73-0.16-2.43,0.33-2.29,2.2
		c0.17,2.2,0.06,4.43,0.03,6.65c-0.01,0.88,0.09,1.63,0.8,2.3c1.85,1.76,3.65,3.58,5.43,5.42c0.71,0.74,1.21,0.93,2.04,0.06
		c2.41-2.53,4.92-4.96,7.39-7.43c0.43-0.43,0.92-0.82,0.26-1.46c-2.55-2.51-5.07-5.05-7.63-7.56
		C190.97,120.72,190.12,121.03,189.67,120.98z M187.97,57.89c-1.08,0.13-1.6,0.28-2.09,0.23c-2.08-0.24-2.83,0.55-2.62,2.69
		c0.21,2.19,0.08,4.42,0.03,6.63c-0.02,0.9,0.18,1.6,0.87,2.25c1.79,1.7,3.54,3.44,5.22,5.25c0.88,0.95,1.43,0.77,2.25-0.07
		c2.32-2.37,4.68-4.7,7.1-6.97c0.89-0.84,0.92-1.34,0-2.2c-1.94-1.79-3.85-3.62-5.59-5.6C191.56,58.3,189.89,57.15,187.97,57.89z
		 M179.52,127.29c0-6.11,0-6.13-5.64-6.09c-1.14,0.01-2.35-0.35-3.36,0.7c-2.18,2.28-4.42,4.5-6.68,6.7
		c-0.71,0.69-0.73,1.17-0.01,1.88c2.5,2.44,4.95,4.94,7.44,7.4c0.37,0.36,0.79,1.16,1.41,0.37
		C175.45,134.68,181.05,132.78,179.52,127.29z M120.46,127.01c-0.94,3.1,0.71,5.75,3.52,7.98c0.99,0.79,1.88,1.74,2.71,2.71
		c0.77,0.91,1.31,1,2.2,0.06c2.28-2.42,4.63-4.78,7.06-7.05c1.07-1.01,0.77-1.6-0.13-2.44c-1.68-1.57-3.37-3.15-4.87-4.9
		c-1.45-1.69-3.07-2.31-5.31-2.24C120.46,121.29,120.46,121.18,120.46,127.01z M116.67,237.17c-0.49-1.59,0.9-3.77-0.89-5.51
		c-1.77-1.73-3.53-3.47-5.24-5.26c-0.78-0.82-1.32-1.03-2.23-0.05c-2.27,2.43-4.65,4.76-7.05,7.06c-0.86,0.82-1,1.36-0.05,2.23
		c1.7,1.55,3.38,3.15,4.88,4.89c1.45,1.68,3.05,2.34,5.3,2.27C116.67,242.63,116.67,242.74,116.67,237.17z M157.97,215.27
		c-6.03,0-6.03,0-6.03,5.41c0,0.51,0.04,1.02-0.01,1.53c-0.08,0.92,0.26,1.59,0.93,2.23c2.14,2.07,4.24,4.18,6.3,6.32
		c0.72,0.74,1.23,0.96,2.06,0.09c2.41-2.51,4.91-4.95,7.36-7.43c0.38-0.38,1.08-0.8,0.33-1.4
		C165.39,219.24,163.49,213.66,157.97,215.27z M142.13,215.27c-3.47-1.24-5.84,1.29-8.3,3.9c-3.27,3.46-3.35,3.4-0.04,6.68
		c1.93,1.91,3.82,5.16,5.87,5.27c2.34,0.12,3.95-3.51,6.08-5.3c1.65-1.38,2.44-2.94,2.36-5.24
		C147.9,215.27,148.03,215.27,142.13,215.27z M142.02,211.48c0.86,0,1.12,0,1.37,0c4.64,0,4.7,0,4.61-4.64
		c-0.03-1.46,0.6-3.07-0.73-4.37c-2.2-2.14-4.39-4.3-6.51-6.51c-0.77-0.8-1.25-0.83-2.04-0.01c-2.36,2.46-4.81,4.84-7.22,7.26
		c-0.4,0.4-1.1,0.88-0.41,1.43C134.62,207.45,136.51,213.04,142.02,211.48z M157.43,148.76c1.6-0.46,3.79,0.88,5.52-0.79
		c1.9-1.82,3.71-3.74,5.61-5.57c0.68-0.65,0.82-1.08,0.07-1.8c-2.5-2.43-4.96-4.89-7.38-7.4c-0.8-0.83-1.32-0.74-2.06,0.04
		c-1.64,1.73-3.26,3.48-5.06,5.04c-1.67,1.45-2.31,3.06-2.24,5.29C152.05,148.75,151.94,148.76,157.43,148.76z M142.02,148.76
		c6.02,0,6.02,0,6.02-5.44c0-0.6-0.03-1.19,0.01-1.79c0.05-0.74-0.25-1.28-0.77-1.79c-2.18-2.15-4.36-4.3-6.48-6.5
		c-0.74-0.77-1.26-0.88-2.06-0.05c-2.42,2.51-4.91,4.95-7.36,7.42c-0.39,0.4-1.03,0.82-0.29,1.4
		C134.6,144.81,136.52,150.38,142.02,148.76z M148.03,157.29c0-0.99-0.07-1.51,0.01-2.01c0.36-2.17-0.45-2.6-2.68-2.87
		c-5.53-0.68-9.71,1.05-12.89,5.51c-0.19,0.27-0.46,0.51-0.72,0.72c-0.99,0.78-1.12,1.49-0.06,2.4c1.28,1.11,2.41,2.4,3.63,3.58
		c1.46,1.41,2.85,3.77,4.44,3.93c1.67,0.16,2.89-2.51,4.41-3.84c0.32-0.28,0.58-0.62,0.91-0.89
		C147.29,162,148.9,159.93,148.03,157.29z M157.94,152.54c-5.99,0-5.99,0-5.99,5.4c0,0.6,0.04,1.19-0.01,1.79
		c-0.06,0.83,0.27,1.44,0.85,2.01c2.13,2.08,4.24,4.18,6.32,6.31c0.7,0.72,1.18,1.03,2.03,0.14c2.41-2.52,4.91-4.95,7.38-7.42
		c0.42-0.42,1.02-0.91,0.33-1.45C165.31,156.56,163.45,150.93,157.94,152.54z M157.09,211.48c5.02,0,5.02,0,8.72-3.71
		c3.61-3.61,3.65-3.65-0.03-7.23c-1.87-1.82-3.52-5.11-5.7-5.02c-1.9,0.08-3.6,3.28-5.51,4.96c-1.81,1.59-2.84,3.25-2.71,5.88
		C152.12,211.47,151.94,211.48,157.09,211.48z M179.52,252.63c0-5.88,0-5.88-5.37-5.87c-0.6,0-1.2,0.03-1.79-0.01
		c-0.83-0.05-1.45,0.23-2.04,0.83c-2.09,2.14-4.2,4.25-6.34,6.33c-0.74,0.71-0.98,1.23-0.11,2.07c2.52,2.42,4.97,4.92,7.44,7.39
		c0.43,0.43,0.9,0.96,1.45,0.26C175.58,260.08,181.15,258.13,179.52,252.63z M120.46,252.39c0.48,1.43-0.83,3.56,0.75,5.22
		c1.82,1.92,3.77,3.71,5.58,5.64c0.79,0.84,1.3,0.75,2.04-0.02c2.38-2.45,4.79-4.86,7.24-7.23c0.82-0.79,0.75-1.32-0.04-2.07
		c-1.67-1.58-3.39-3.15-4.87-4.9c-1.51-1.78-3.2-2.42-5.55-2.34C120.46,246.88,120.46,246.75,120.46,252.39z M183.31,236.85
		c0,0.79,0,0.96,0,1.13c0,4.77,0,4.82,4.74,4.73c1.46-0.03,3.06,0.61,4.36-0.72c2.14-2.2,4.31-4.38,6.51-6.52
		c0.72-0.7,0.72-1.16,0-1.86c-2.51-2.44-4.96-4.93-7.43-7.41c-0.41-0.41-0.88-1.04-1.45-0.34
		C187.18,229.38,181.69,231.37,183.31,236.85z M179.52,237.07c-0.54-1.47,0.9-3.66-0.9-5.39c-1.84-1.77-3.67-3.55-5.4-5.41
		c-0.79-0.85-1.25-0.73-1.99,0.03c-2.37,2.44-4.76,4.86-7.23,7.2c-0.98,0.93-0.66,1.48,0.14,2.24c1.73,1.64,3.51,3.25,5.03,5.06
		c1.4,1.67,2.99,2.15,5.1,2.09C179.52,242.75,179.52,242.84,179.52,237.07z M120.46,236.83c0,6.01,0,6.01,5.45,6.01
		c0.6,0,1.19-0.03,1.79,0.01c0.74,0.05,1.28-0.26,1.79-0.77c2.15-2.18,4.32-4.34,6.49-6.49c0.58-0.58,1.06-1.04,0.22-1.86
		c-2.62-2.55-5.18-5.16-7.77-7.74c-0.37-0.36-0.78-0.69-1.24-0.1C124.41,229.42,118.83,231.33,120.46,236.83z M204.59,89.91
		c-2.93-1.1-5.38,0.83-7.57,3.45c-0.76,0.91-1.62,1.76-2.53,2.53c-0.98,0.83-1.13,1.44-0.09,2.42c2.42,2.28,4.76,4.64,7.04,7.05
		c0.88,0.93,1.4,0.79,2.19-0.05c1.82-1.92,3.64-3.83,5.61-5.59c1.33-1.19,1.74-2.49,1.71-4.24
		C210.86,89.92,210.92,89.91,204.59,89.91z M94.85,211.48c1.58-0.5,3.76,0.91,5.5-0.88c1.72-1.77,3.46-3.54,5.26-5.23
		c0.89-0.83,0.91-1.38,0.01-2.24c-2.41-2.29-4.79-4.63-7.05-7.06c-1.02-1.1-1.56-0.69-2.37,0.15c-1.7,1.79-3.4,3.61-5.26,5.23
		c-1.47,1.29-1.98,2.72-1.94,4.67C89.14,211.48,89.06,211.48,94.85,211.48z M204.81,211.48c1.05,0,1.47,0,1.9,0
		c4.21,0,4.28,0,4.17-4.32c-0.04-1.53,0.65-3.21-0.78-4.59c-2.28-2.18-4.5-4.43-6.68-6.7c-0.71-0.74-1.12-0.69-1.81,0.02
		c-2.44,2.51-4.93,4.96-7.4,7.43c-0.41,0.41-1.08,0.89-0.37,1.46C197.36,207.6,199.33,213.13,204.81,211.48z M116.67,252.59
		c0-1.73-0.11-2.85,0.02-3.94c0.2-1.69-0.48-1.98-2.1-2.19c-4.25-0.55-7.57,0.6-10.12,4.11c-0.89,1.23-2.11,2.22-3.24,3.27
		c-0.72,0.66-1.08,1.14-0.16,2.01c2.53,2.41,4.97,4.92,7.44,7.4c0.43,0.43,0.93,1,1.48,0.33
		C112.82,260.05,118.34,258.07,116.67,252.59z M89.06,157.06c0.33,1.3-0.64,2.99,0.8,4.37c2.28,2.17,4.5,4.41,6.66,6.69
		c0.79,0.83,1.26,0.75,2.01-0.03c2.24-2.33,4.5-4.65,6.87-6.85c1.14-1.06,1.32-1.82,0.01-2.79c-0.54-0.4-1.05-0.9-1.44-1.44
		c-2.66-3.71-6.15-5-10.72-4.56C89.09,152.86,89.06,152.54,89.06,157.06z M210.92,157.34c0-1.45,0-2.47,0-3.49
		c0-0.6,0.05-1.34-0.82-1.27c-4.5,0.36-9.3-1.48-13.06,3.24c-3.44,4.33-3.84,4.03,0.05,7.89c1.75,1.74,3.5,4.74,5.32,4.79
		c2.08,0.06,3.6-3.19,5.5-4.85C209.96,161.85,211.81,160,210.92,157.34z M116.67,174.46c-0.63-1.5,0.99-3.78-0.87-5.59
		c-1.77-1.72-3.53-3.45-5.21-5.25c-0.81-0.86-1.35-0.99-2.23-0.05c-2.34,2.47-4.75,4.87-7.21,7.22c-0.84,0.8-0.74,1.26,0.04,1.99
		c1.85,1.75,3.72,3.51,5.4,5.42c1.34,1.52,2.78,2.14,4.84,2.07C116.67,180.11,116.67,180.22,116.67,174.46z M183.31,174.03
		c0,1.64,0.1,2.67-0.02,3.68c-0.23,1.92,0.32,2.82,2.44,2.55c1.42-0.18,2.89-0.06,4.33-0.02c0.81,0.02,1.44-0.15,2.04-0.76
		c2.25-2.32,4.54-4.6,6.85-6.86c0.58-0.56,0.78-0.94,0.09-1.61c-2.62-2.55-5.19-5.15-7.77-7.74c-0.4-0.41-0.85-0.7-1.28-0.16
		C187.18,166.6,181.68,168.57,183.31,174.03z M116.67,189.94c0-0.88,0-1.13,0-1.39c0-4.55,0-4.61-4.59-4.52
		c-1.46,0.03-3.07-0.6-4.37,0.72c-2.21,2.25-4.44,4.47-6.7,6.67c-0.59,0.58-0.75,0.96-0.07,1.62c2.57,2.49,5.07,5.05,7.6,7.58
		c0.42,0.42,0.9,1,1.46,0.3C112.82,197.39,118.38,195.43,116.67,189.94z M183.31,189.84c-1.06,3.25,0.86,5.86,3.66,8.13
		c0.86,0.69,1.64,1.5,2.34,2.35c0.85,1.02,1.47,1.05,2.42,0.03c1.97-2.12,3.99-4.22,6.15-6.13c1.56-1.38,2.02-2.35,0.09-3.84
		c-1.61-1.24-3.03-2.76-4.34-4.32c-1.39-1.66-2.99-2.17-5.12-2.11C183.31,184.1,183.31,184,183.31,189.84z M116.86,64.5
		c-0.8-6-0.18-6.09-5.81-6.06c-1.15,0.01-2.33-0.26-3.33,0.8c-2.1,2.24-4.28,4.41-6.51,6.51c-0.84,0.8-0.74,1.26,0.03,2
		c2.45,2.37,4.83,4.82,7.25,7.23c0.47,0.46,0.97,1.18,1.66,0.34C112.96,71.89,117.59,69.96,116.86,64.5z M89.06,94.74
		c-0.75,2.39,0.72,4.23,2.67,5.95c1.53,1.35,3,2.8,4.33,4.34c1.13,1.32,1.88,1.14,2.95-0.06c1.47-1.66,3.12-3.15,4.68-4.72
		c3.07-3.07,2.83-2.87,0.15-6.1c-2.81-3.38-5.98-4.72-10.38-4.32C89.09,90.23,89.06,89.91,89.06,94.74z M183.31,252.51
		c-0.93,3.09,0.67,5.75,3.51,7.96c0.94,0.73,1.74,1.64,2.54,2.53c0.75,0.83,1.32,1.11,2.26,0.13c2.29-2.42,4.66-4.77,7.06-7.07
		c0.9-0.86,0.85-1.4-0.05-2.24c-1.88-1.74-3.72-3.53-5.43-5.44c-1.29-1.44-2.6-2.04-4.63-1.92
		C183.31,246.76,183.31,246.62,183.31,252.51z M116.77,127.27c-0.56-2.24,0.41-4.44-0.39-5.63c-0.88-1.31-3.15-0.27-4.8-0.58
		c-1.28-0.24-2.66-0.45-3.8,0.76c-2.1,2.23-4.28,4.39-6.5,6.5c-0.79,0.76-0.85,1.19-0.02,1.99c2.45,2.36,4.8,4.83,7.2,7.25
		c0.46,0.46,0.97,1.25,1.65,0.42C112.9,134.56,118.13,132.65,116.77,127.27z M116.67,111.41c0.84-2.96-0.79-5.41-3.36-7.76
		c-4.05-3.7-3.94-3.85-7.78,0.27c-1.68,1.8-5.03,3.34-4.79,5.24c0.25,2.01,3.28,3.63,4.98,5.52c1.54,1.71,3.16,2.71,5.66,2.66
		C116.67,117.23,116.67,117.38,116.67,111.41z M183.31,111.4c0,1.72,0.1,2.84-0.02,3.93c-0.19,1.6,0.46,1.86,1.97,2.01
		c4.35,0.42,7.98-0.49,10.62-4.26c0.77-1.1,1.86-1.98,2.87-2.9c0.74-0.67,1.03-1.15,0.14-2c-2.52-2.41-4.95-4.91-7.42-7.38
		c-0.42-0.42-0.93-1.02-1.47-0.34C187.17,103.95,181.69,105.94,183.31,111.4z M142.09,86.01c5.95,0,5.95,0,5.95-5.24
		c0-0.68-0.03-1.36,0.01-2.04c0.04-0.74-0.23-1.3-0.75-1.81c-2.18-2.15-4.37-4.3-6.5-6.5c-0.68-0.7-1.14-0.78-1.85-0.05
		c-2.44,2.5-4.93,4.94-7.4,7.42c-0.41,0.41-1.07,0.93-0.4,1.47C134.65,82.08,136.59,87.64,142.09,86.01z M157.43,86.01
		c1.59-0.47,3.78,0.89,5.52-0.83c1.82-1.8,3.59-3.64,5.44-5.4c0.8-0.77,0.8-1.3,0-2.08c-2.45-2.37-4.86-4.78-7.23-7.22
		c-0.75-0.77-1.26-0.84-2.04,0c-1.56,1.69-3.14,3.38-4.89,4.86c-1.77,1.5-2.44,3.17-2.36,5.52C152.07,86,151.94,86.01,157.43,86.01z
		 M204.86,86c1.98,0,3.35,0.01,4.71,0c0.58-0.01,1.33,0.06,1.3-0.81c-0.07-1.85,0.45-3.75-0.44-5.54c-1.76-3.56-4.13-6.63-7.07-9.3
		c-0.82-0.75-1.21-0.46-1.81,0.14c-2.41,2.41-4.86,4.79-7.28,7.2c-0.44,0.44-1.28,0.96-0.42,1.65
		C197.37,82.18,199.36,87.7,204.86,86z M142.13,89.91c-3.24-1.05-5.87,0.85-8.15,3.66c-0.69,0.86-1.49,1.65-2.35,2.34
		c-1.1,0.89-0.86,1.54,0.05,2.41c2.33,2.24,4.64,4.52,6.86,6.87c0.96,1.02,1.57,0.9,2.45-0.06c1.62-1.75,3.27-3.49,5.07-5.05
		c1.56-1.35,2.08-2.85,2.03-4.89C147.94,89.92,148.04,89.91,142.13,89.91z M157.88,89.91c-1.58,0-2.53,0.1-3.45-0.02
		c-1.99-0.27-2.83,0.44-2.51,2.48c0.11,0.66-0.05,1.37,0.03,2.04c0.19,1.53-0.59,3.2,0.88,4.56c2.18,2.03,4.25,4.18,6.33,6.32
		c0.72,0.74,1.25,0.94,2.08,0.09c2.42-2.52,4.92-4.96,7.38-7.43c0.41-0.41,0.98-0.86,0.26-1.45
		C165.37,93.65,163.34,88.19,157.88,89.91z M95.02,86.01c1.45-0.58,3.64,0.93,5.37-0.9c1.69-1.79,3.44-3.53,5.24-5.22
		c0.86-0.81,0.99-1.36,0.06-2.25c-2.46-2.34-4.85-4.77-7.23-7.19c-0.6-0.61-0.99-0.91-1.81-0.15c-2.97,2.74-5.45,5.83-7.16,9.49
		c-0.87,1.85-0.84,4.02-0.19,5.7c0.48,1.24,2.62,0.32,4.01,0.51C93.73,86.05,94.16,86.01,95.02,86.01z M80.1,215.26
		c-5.19,0-5.19,0-7.83,2.86c-1.44,1.56-1.54,7.24-0.09,8.79c1.22,1.3,2.57,2.49,3.76,3.81c0.81,0.9,1.4,0.95,2.25,0.04
		c1.56-1.68,3.13-3.38,4.88-4.86c1.77-1.5,2.41-3.18,2.33-5.52C85.23,215.26,85.35,215.26,80.1,215.26z M220.35,215.26
		c-1.61,0-2.98,0.01-4.34,0c-0.91-0.01-1.38,0.29-1.41,1.32c-0.1,3.97-0.6,8.05,3.59,10.58c0.49,0.3,0.85,0.83,1.27,1.25
		c3.42,3.42,3.42,3.42,6.91-0.07c3.42-3.42,3.29-8,0.1-11.55C224.54,214.63,222.27,215.51,220.35,215.26z M79.74,211.48
		c1.62,0,2.9-0.02,4.18,0.01c0.87,0.02,1.43-0.09,1.45-1.21c0.08-4,0.59-8.09-3.62-10.63c-0.57-0.34-0.98-0.95-1.46-1.43
		c-3.27-3.27-3.27-3.27-6.5-0.04c-3.72,3.73-3.6,8.38,0.03,12.15C75.75,212.34,78.02,210.98,79.74,211.48z M219.8,211.48
		c1.2,0,2.39,0.02,3.59,0c1.76-0.03,5.19-2.75,5.28-4.44c0.2-3.45,0.71-7.05-2.93-9.35c-0.63-0.4-1.17-1.01-1.63-1.62
		c-0.87-1.18-1.53-0.83-2.37,0.07c-1.57,1.68-3.16,3.37-4.9,4.88c-1.67,1.45-2.34,3.06-2.27,5.32
		C214.75,211.48,214.63,211.48,219.8,211.48z M220.36,152.54c-1.63,0-3,0.03-4.36-0.01c-0.93-0.03-1.35,0.24-1.39,1.28
		c-0.16,4.02-0.5,8.06,3.66,10.6c0.5,0.3,0.85,0.83,1.28,1.25c3.42,3.42,3.42,3.42,6.86-0.02c3.37-3.37,3.23-8.13,0.09-11.65
		C224.54,151.8,222.24,152.89,220.36,152.54z M85.35,157.28c0-0.86-0.06-1.3,0.01-1.71c0.42-2.39-0.38-3.42-2.95-3.07
		c-1.67,0.23-3.43,0.22-5.11,0c-2.99-0.39-4.63,1.76-5.54,3.68c-1.08,2.28-1.29,5.31,0.13,7.6c1.22,1.97,3.07,4.18,5.1,4.79
		c1.36,0.41,2.85-2.51,4.37-3.85c0.45-0.39,0.81-0.89,1.28-1.25C84.8,161.78,86.03,159.71,85.35,157.28z M174.66,54.64
		c1.45,0,2.47,0.01,3.49,0c0.49-0.01,1.01,0.08,1.31-0.51c0.78-1.5-0.21-5.12-1.76-6.02c-3-1.75-6.07-3.4-9.05-5.19
		c-1.19-0.72-1.9-0.42-2.82,0.49c-2.95,2.94-2.99,2.9-0.04,5.84c0.9,0.9,1.89,1.74,2.69,2.72C170.21,54.1,172.26,55.31,174.66,54.64
		z M125.35,54.64c2.32,0.68,4.26-0.53,5.97-2.59c1.19-1.44,2.7-2.61,3.93-4.03c0.58-0.67,2.47-1.32,0.85-2.49
		c-1.43-1.04-1.9-4.15-4.72-2.6c-2.98,1.64-5.94,3.33-8.88,5.04c-1.88,1.1-2.88,3.82-1.97,5.89c0.73,1.67,2.41,0.44,3.62,0.77
		C124.39,54.7,124.66,54.64,125.35,54.64z M160.31,174.66c-0.26,0.16-0.5,0.25-0.67,0.42c-2.11,2.09-4.21,4.19-6.31,6.29
		c-0.74,0.74-0.09,1.2,0.38,1.67c1.86,1.87,3.77,3.68,5.56,5.6c0.84,0.9,1.33,0.61,2.03-0.12c1.77-1.84,3.58-3.63,5.4-5.4
		c0.69-0.67,1.08-1.19,0.17-2.05c-1.97-1.86-3.85-3.83-5.78-5.75C160.86,175.09,160.59,174.89,160.31,174.66z M150.03,184.85
		c-0.33,0.26-0.67,0.49-0.95,0.77c-1.93,1.91-3.82,3.87-5.78,5.75c-0.77,0.74-0.56,1.23,0.09,1.87c1.89,1.83,3.77,3.68,5.57,5.59
		c0.77,0.81,1.27,0.81,2.03,0c1.75-1.85,3.56-3.64,5.4-5.4c0.82-0.78,1.05-1.35,0.09-2.25c-1.92-1.79-3.74-3.7-5.6-5.56
		C150.66,185.38,150.4,185.18,150.03,184.85z M139.71,174.58c-0.42,0.39-0.74,0.65-1.03,0.95c-2.06,2.13-4.12,4.26-6.18,6.39
		c1.68,2.58,4.22,4.35,6.21,6.63c0.7,0.8,1.23,0.92,2.03,0.06c1.8-1.92,3.67-3.77,5.58-5.58c0.83-0.79,0.74-1.31-0.04-2.06
		c-1.9-1.82-3.73-3.71-5.6-5.57C140.39,175.12,140.06,174.87,139.71,174.58z M157.23,171.57c-0.17-0.2-0.37-0.48-0.61-0.71
		c-1.92-1.93-3.87-3.82-5.74-5.78c-0.73-0.76-1.19-0.61-1.85,0.07c-1.77,1.83-3.55,3.65-5.41,5.39c-0.95,0.89-1.02,1.51-0.03,2.43
		c1.81,1.67,3.53,3.43,5.23,5.21c0.77,0.81,1.3,1.12,2.22,0.12c1.72-1.87,3.59-3.62,5.38-5.43
		C156.76,172.53,157.24,172.25,157.23,171.57z M104.89,244.81c-0.32-0.38-0.52-0.65-0.75-0.88c-2.19-2.13-4.16-5.55-6.64-5.98
		c-2.17-0.37-4.02,3.6-6.22,5.43c-1.07,0.89-1.2,1.58-0.08,2.59c2.14,1.93,4.09,5.5,6.24,5.61c2.44,0.11,4.23-3.68,6.43-5.65
		C104.23,245.6,104.53,245.21,104.89,244.81z M209.81,119.42c-0.19-0.29-0.34-0.6-0.57-0.84c-1.98-2-4-3.97-5.95-6
		c-0.79-0.82-1.27-0.45-1.87,0.17c-2.06,2.15-5.41,4.06-5.83,6.48c-0.36,2.09,3.47,3.94,5.31,6.03c0.11,0.13,0.25,0.23,0.35,0.37
		c0.79,1.03,1.49,1.05,2.42,0.04c1.67-1.82,3.48-3.52,5.22-5.28C209.19,120.1,209.47,119.78,209.81,119.42z M219.97,254.83
		c-0.13-0.17-0.25-0.39-0.43-0.56c-2.04-2.06-4.1-4.1-6.14-6.16c-0.74-0.75-1.18-0.16-1.67,0.32c-1.87,1.87-3.72,3.76-5.62,5.6
		c-0.68,0.65-0.86,1.11-0.09,1.85c1.97,1.89,3.87,3.85,5.81,5.77c0.23,0.23,0.52,0.48,0.83,0.55
		C213.13,262.3,220,255.35,219.97,254.83z M202.58,237.41c-0.43,0.34-0.84,0.62-1.18,0.96c-1.69,1.67-3.3,3.43-5.07,5.02
		c-1.14,1.03-1.28,1.7-0.04,2.78c2.1,1.84,3.98,5.3,6.08,5.4c2.37,0.11,4.07-3.6,6.25-5.45c1.14-0.97,1.32-1.69,0.07-2.78
		c-1.72-1.51-3.27-3.21-4.9-4.83C203.43,238.15,203.04,237.83,202.58,237.41z M220.11,234.44c-0.3-0.34-0.55-0.65-0.83-0.93
		c-1.86-1.87-3.76-3.69-5.57-5.6c-0.86-0.92-1.39-0.51-2.05,0.17c-1.78,1.82-3.54,3.67-5.42,5.39c-0.97,0.9-0.74,1.44,0.09,2.22
		c1.79,1.69,3.54,3.43,5.22,5.23c0.83,0.88,1.39,0.93,2.24,0.02c1.74-1.86,3.59-3.62,5.38-5.43
		C219.48,235.22,219.73,234.88,220.11,234.44z M94.57,234.64c-0.18-0.29-0.27-0.53-0.44-0.69c-2.09-2.11-4.19-4.22-6.3-6.31
		c-0.75-0.74-1.2-0.06-1.66,0.4c-1.81,1.8-3.55,3.67-5.43,5.38c-1.03,0.94-0.62,1.48,0.14,2.22c1.77,1.71,3.55,3.42,5.21,5.24
		c0.94,1.03,1.54,0.9,2.42-0.05c1.68-1.8,3.47-3.5,5.2-5.25C94.01,235.28,94.28,234.96,94.57,234.64z M104.94,119.33
		c-0.35-0.42-0.65-0.82-1-1.17c-1.68-1.7-3.46-3.3-5.03-5.1c-1.11-1.27-1.8-1.03-2.8,0.08c-1.87,2.09-3.86,4.07-5.81,6.1
		c1.67,2.48,4.11,4.23,6.05,6.45c0.75,0.86,1.34,1.06,2.24,0.1c1.74-1.87,3.6-3.64,5.41-5.45
		C104.29,120.05,104.56,119.74,104.94,119.33z M94.61,255.08c-0.14-0.24-0.21-0.49-0.37-0.65c-2.1-2.12-4.21-4.23-6.32-6.35
		c-0.74-0.74-1.18-0.12-1.66,0.36c-1.81,1.81-3.56,3.68-5.45,5.4c-0.97,0.88-0.81,1.43,0.03,2.23c1.85,1.77,3.67,3.57,5.43,5.43
		c0.77,0.81,1.29,0.8,2.06,0c1.82-1.91,3.73-3.75,5.59-5.63C94.15,255.65,94.35,255.38,94.61,255.08z M77.01,237.35
		c-0.36,0.3-0.69,0.54-0.98,0.83c-1.27,1.26-2.56,2.5-3.79,3.8c-1.42,1.5-1.42,3.96,0.01,5.47c1.23,1.3,2.57,2.5,3.77,3.82
		c0.76,0.83,1.29,0.8,2.06,0c1.82-1.91,3.7-3.78,5.6-5.61c0.72-0.7,0.72-1.16-0.01-1.85c-1.91-1.82-3.75-3.72-5.62-5.59
		C77.74,237.93,77.39,237.68,77.01,237.35z M228.71,244.74c0.51-2.31-1.49-3.22-2.73-4.5c-2.97-3.09-3.04-3.08-5.96-0.07
		c-1.46,1.51-4.19,2.85-4.03,4.58c0.15,1.65,2.6,3.13,4.09,4.63c2.85,2.89,2.92,2.92,5.8-0.09
		C227.1,248.01,229.11,247.12,228.71,244.74z M202.51,174.25c-2.26,2.36-4.25,4.57-6.41,6.62c-1.04,0.99-0.81,1.55,0.11,2.36
		c2.22,1.94,4.1,5.84,6.39,5.65c2.28-0.19,4.26-3.78,6.42-5.83c0.73-0.69,0.98-1.14,0.1-1.99
		C206.93,178.93,204.85,176.67,202.51,174.25z M97.43,174.61c-0.34,0.31-0.6,0.53-0.84,0.77c-1.93,1.92-3.82,3.89-5.8,5.76
		c-0.77,0.73-0.61,1.15,0.06,1.8c1.9,1.83,3.78,3.69,5.59,5.6c0.74,0.79,1.2,0.88,1.99,0.03c1.8-1.93,3.67-3.8,5.6-5.6
		c0.87-0.81,0.69-1.27-0.06-1.99c-1.91-1.82-3.75-3.72-5.62-5.58C98.07,175.13,97.75,174.89,97.43,174.61z M147.01,119.24
		c-0.11-0.19-0.21-0.43-0.38-0.61c-2.04-2.06-4.12-4.09-6.14-6.17c-0.75-0.77-1.2-0.23-1.66,0.28c-2.04,2.26-4.57,4.07-6.26,6.67
		c2.08,2.13,4.16,4.28,6.25,6.4c0.39,0.4,0.83,1.08,1.47,0.46c2.2-2.14,4.36-4.34,6.53-6.52
		C146.92,119.64,146.94,119.45,147.01,119.24z M167.58,56.58c-0.27-0.34-0.45-0.62-0.68-0.85c-1.93-1.94-3.88-3.85-5.79-5.81
		c-0.6-0.61-1.06-0.69-1.7-0.04c-1.91,1.96-3.83,3.9-5.8,5.79c-0.76,0.73-0.61,1.22,0.07,1.88c1.9,1.84,3.78,3.71,5.61,5.62
		c0.67,0.7,1.15,0.79,1.86,0.04c1.83-1.91,3.73-3.75,5.6-5.63C167.04,57.29,167.28,56.94,167.58,56.58z M139.81,49.24
		c-0.37,0.28-0.73,0.5-1.01,0.78c-1.88,1.86-3.7,3.79-5.64,5.59c-1.1,1.03-0.37,1.57,0.32,2.24c1.46,1.44,3.04,2.78,4.31,4.37
		c1.44,1.8,2.47,1.72,3.9-0.02c1.61-1.96,4.81-3.67,4.89-5.58c0.09-2.19-3.26-3.78-5.02-5.72
		C141.06,50.34,140.47,49.85,139.81,49.24z M157.28,46.3c-0.16-0.24-0.24-0.41-0.36-0.52c-2.11-2.12-4.22-4.23-6.34-6.34
		c-0.62-0.62-1.06-0.15-1.5,0.28c-1.87,1.87-3.71,3.78-5.63,5.6c-0.84,0.79-0.74,1.33,0.04,2.07c1.85,1.77,3.66,3.58,5.43,5.43
		c0.73,0.76,1.24,0.94,2.05,0.07c1.81-1.93,3.73-3.76,5.59-5.64C156.85,46.96,157.06,46.6,157.28,46.3z M157.33,234.59
		c-0.25-0.33-0.43-0.61-0.65-0.84c-1.92-1.94-3.88-3.84-5.77-5.81c-0.71-0.74-1.2-0.67-1.88,0.03c-1.84,1.9-3.71,3.77-5.61,5.61
		c-0.68,0.66-0.82,1.15-0.06,1.88c1.91,1.83,3.78,3.7,5.6,5.61c0.79,0.83,1.32,0.75,2.07-0.03c1.77-1.85,3.61-3.63,5.41-5.44
		C156.74,235.3,157,234.97,157.33,234.59z M150.15,122.2c-0.29,0.13-0.56,0.19-0.72,0.35c-2.12,2.1-4.23,4.22-6.34,6.33
		c-0.64,0.64-0.15,1.05,0.28,1.48c1.87,1.87,3.77,3.71,5.59,5.63c0.78,0.82,1.31,0.79,2.07-0.01c1.7-1.79,3.41-3.59,5.25-5.24
		c1.18-1.06,0.89-1.7-0.11-2.62c-1.69-1.56-3.27-3.24-4.91-4.87C150.91,122.9,150.53,122.57,150.15,122.2z M167.57,244.77
		c-0.3-0.36-0.53-0.69-0.82-0.96c-2.12-2.07-4.04-5.4-6.46-5.82c-2.13-0.37-3.94,3.46-6.04,5.29c-0.19,0.17-0.34,0.38-0.55,0.54
		c-0.93,0.71-0.71,1.32,0.05,2.05c1.84,1.76,3.66,3.56,5.41,5.42c0.78,0.83,1.3,0.76,2.05-0.03c1.76-1.85,3.6-3.62,5.4-5.43
		C166.91,245.52,167.18,245.2,167.57,244.77z M167.5,119.17c-0.36-0.39-0.69-0.77-1.04-1.13c-1.69-1.7-3.43-3.34-5.05-5.09
		c-0.9-0.98-1.5-1.05-2.43-0.02c-1.61,1.77-3.29,3.47-5.07,5.07c-1.14,1.02-0.97,1.68,0.07,2.62c2.08,1.9,3.97,5.36,6.09,5.48
		c2.42,0.14,4.14-3.59,6.29-5.5c0.26-0.23,0.5-0.47,0.72-0.73C167.22,119.7,167.32,119.47,167.5,119.17z M149.89,101.86
		c-0.15,0.09-0.32,0.15-0.43,0.27c-2.12,2.11-4.24,4.22-6.35,6.33c-0.76,0.76-0.05,1.21,0.41,1.67c1.74,1.76,3.55,3.46,5.23,5.27
		c0.9,0.97,1.52,1.05,2.45,0.03c1.68-1.82,3.43-3.57,5.25-5.25c0.97-0.89,0.75-1.46-0.08-2.26c-1.8-1.7-3.51-3.49-5.28-5.23
		C150.75,102.35,150.49,101.84,149.89,101.86z M157.21,66.71c-0.11-0.16-0.23-0.39-0.41-0.57c-2.05-2.06-4.11-4.11-6.16-6.16
		c-0.75-0.76-1.21-0.11-1.68,0.36c-1.76,1.74-3.44,3.57-5.28,5.23c-1.18,1.06-0.88,1.71,0.12,2.62c1.69,1.56,3.27,3.25,4.91,4.87
		c0.36,0.36,0.72,0.77,1.16,0.96C150.33,74.22,157.24,67.31,157.21,66.71z M139.5,237.61c-0.26,0.24-0.64,0.56-0.99,0.91
		c-1.45,1.44-2.78,3.02-4.36,4.29c-1.81,1.45-1.68,2.47,0.03,3.89c1.95,1.62,3.63,4.8,5.54,4.89c2.19,0.1,3.77-3.24,5.69-4.99
		c0.56-0.51,1.11-1.07,1.48-1.71C147.14,244.47,140.25,237.58,139.5,237.61z M157.24,254.99c-0.21-0.28-0.33-0.5-0.5-0.68
		c-1.99-2-4-3.96-5.96-5.99c-0.67-0.69-1.11-0.49-1.68,0.09c-1.85,1.89-3.72,3.76-5.62,5.6c-0.67,0.65-0.86,1.12-0.09,1.87
		c1.97,1.89,3.9,3.83,5.79,5.79c0.67,0.69,1.1,0.49,1.67-0.09c1.91-1.95,3.85-3.87,5.78-5.81
		C156.87,255.54,157.04,255.26,157.24,254.99z M212.74,184.54c-2.3,2.39-4.41,4.62-6.57,6.79c-0.66,0.66-0.83,1.08-0.06,1.81
		c1.98,1.87,3.89,3.82,5.8,5.77c0.59,0.6,1,0.67,1.63,0.01c1.89-1.97,3.81-3.9,5.78-5.79c0.7-0.67,0.76-1.09,0.04-1.81
		C217.18,189.17,215.08,186.94,212.74,184.54z M220.02,171.71c-0.23-0.25-0.49-0.57-0.78-0.86c-1.79-1.81-3.66-3.55-5.37-5.44
		c-0.96-1.06-1.58-0.81-2.37,0.1c-1.93,2.21-5.83,4.08-5.63,6.38c0.2,2.29,3.73,4.29,5.81,6.41c0.29,0.3,0.62,0.61,0.99,0.78
		C212.97,179.21,220.01,172.18,220.02,171.71z M94.66,171.88c-0.23-0.3-0.4-0.57-0.62-0.79c-1.98-1.99-4-3.93-5.94-5.96
		c-0.75-0.78-1.18-0.53-1.8,0.12c-1.83,1.9-3.67,3.78-5.59,5.58c-0.85,0.8-0.72,1.27,0.04,1.99c1.84,1.76,3.69,3.52,5.39,5.43
		c1,1.13,1.56,0.72,2.37-0.13c1.64-1.72,3.35-3.38,5.03-5.06C93.89,172.7,94.23,172.33,94.66,171.88z M94.6,192.24
		c-0.31-0.34-0.53-0.61-0.77-0.84c-1.93-1.93-3.89-3.82-5.77-5.81c-0.74-0.79-1.17-0.58-1.8,0.08c-1.83,1.9-3.67,3.8-5.6,5.6
		c-0.9,0.84-0.58,1.31,0.13,2c1.84,1.77,3.7,3.54,5.41,5.43c0.92,1.02,1.45,0.67,2.19-0.1c1.72-1.78,3.49-3.5,5.23-5.26
		C93.96,193,94.27,192.62,94.6,192.24z M228.7,182.03c0.46-2.32-1.56-3.2-2.79-4.48c-2.9-3.03-2.97-3.02-5.91,0
		c-1.46,1.5-4.11,2.81-4.03,4.58c0.06,1.52,2.52,2.97,3.95,4.42c2.97,3,3.03,3.03,5.92,0C227.07,185.26,229.1,184.4,228.7,182.03z
		 M71.27,181.97c-0.42,2.44,1.7,3.34,2.98,4.68c2.76,2.92,2.85,2.9,5.55,0.12c1.53-1.57,4.27-2.95,4.22-4.78
		c-0.05-1.57-2.65-3.07-4.15-4.58c-2.85-2.87-2.91-2.91-5.74,0.06C72.91,178.77,70.88,179.62,71.27,181.97z M79.89,148.75
		c0,0,0,0.01,0,0.01c1.36,0,2.73-0.02,4.09,0.01c0.93,0.02,1.41-0.31,1.39-1.33c-0.05-2.05,0.1-4.1-0.05-6.14
		c-0.15-1.96-1.84-2.82-3.59-1.98c-3.07,1.48-5.52,3.63-7.32,6.55c-1.09,1.77-0.12,2.57,1.4,2.83
		C77.13,148.93,78.52,148.75,79.89,148.75z M219.93,148.75c1.36,0,2.74,0.1,4.09-0.03c1.91-0.18,2.44-1.29,1.48-2.92
		c-1.74-2.95-4.25-5.07-7.33-6.52c-1.7-0.8-3.19-0.02-3.51,1.85c-0.13,0.75-0.04,1.53-0.04,2.3
		C214.62,148.76,214.62,148.76,219.93,148.75z M87.09,101.78c-0.82,1-2.58,1.55-2.49,3.17c0.19,3.39,0.69,6.77,1.6,10.06
		c0.37,1.32,1.03,1.66,2.12,0.52c1.83-1.91,3.73-3.75,5.59-5.62c0.24-0.24,0.52-0.49,0.61-0.79
		C94.66,108.7,87.74,101.77,87.09,101.78z M215.38,105.24c0.09-1.71-1.31-2.51-2.42-3.28c-0.85-0.59-1.36,0.7-1.93,1.23
		c-1.67,1.58-3.25,3.25-4.9,4.85c-0.63,0.62-0.95,1.08-0.13,1.85c1.98,1.87,3.88,3.83,5.8,5.76c0.79,0.8,1.51,0.97,1.75-0.38
		C214.13,111.93,215.38,108.71,215.38,105.24z M106.12,266.26c-2.87-2.85-5.32-5.29-7.79-7.73c-0.38-0.38-0.74-1.03-1.41-0.36
		c-2.59,2.59-5.18,5.18-8.09,8.09C94.83,266.26,100.16,266.26,106.12,266.26z M211.08,266.2c-2.85-2.82-5.37-5.28-7.86-7.78
		c-0.69-0.69-1.13-0.35-1.66,0.19c-2.42,2.45-4.86,4.89-7.56,7.59C199.76,266.2,205.12,266.2,211.08,266.2z M84.93,266.33
		c0.13-0.2,0.26-0.41,0.4-0.61c-2.49-2.39-4.99-4.77-7.46-7.18c-0.59-0.58-1.04-0.71-1.66-0.06c-1.47,1.53-3,3-4.47,4.52
		c-0.74,0.77-0.57,1.78-0.4,2.66c0.21,1.11,1.24,0.63,1.9,0.64C77.13,266.35,81.03,266.33,84.93,266.33z M214.64,265.72
		c0.15,0.2,0.29,0.4,0.44,0.6c3.82,0,7.63,0.03,11.45-0.03c0.73-0.01,1.87,0.58,2.13-0.67c0.2-0.96,0.28-2.02-0.58-2.85
		c-1.4-1.35-2.79-2.73-4.14-4.14c-0.64-0.67-1.1-0.83-1.85-0.09C219.64,260.98,217.13,263.34,214.64,265.72z M148.54,266.22
		c-2.91-2.82-5.29-5.12-7.67-7.42c-0.56-0.54-1.01-1.15-1.86-0.29c-2.45,2.5-4.96,4.94-7.75,7.71
		C137.13,266.22,142.42,266.22,148.54,266.22z M168.79,266.22c-2.79-2.75-5.14-5.08-7.51-7.39c-0.52-0.51-0.95-1.24-1.86-0.37
		c-2.54,2.42-5.13,4.77-7.71,7.14c0.19,0.21,0.38,0.41,0.56,0.62C157.58,266.22,162.87,266.22,168.79,266.22z M124.59,266.33
		c-2.32-2.2-3.98-5.06-5.91-5.25c-2-0.2-3.5,2.99-5.27,4.64c-0.08,0.08-0.04,0.28-0.08,0.6c2.79,0,5.56,0,8.33,0
		C122.4,266.33,123.14,266.33,124.59,266.33z M187.22,266.22c-2.34-1.98-3.74-5.17-5.93-5.14c-1.72,0.02-3.41,2.95-5.1,4.6
		c-0.09,0.08-0.06,0.29-0.1,0.54C179.6,266.22,183.1,266.22,187.22,266.22z M89.35,124.91c1.1,2.31,1.87,3.95,2.67,5.6
		c0.24,0.49,0.42,1.36,1.17,0.59c0.51-0.53,1.87-1.01,1.15-1.88C93.1,127.72,91.87,126.09,89.35,124.91z M207.49,131.52
		c0.88-2.11,2.11-3.86,2.6-6.31c-1.63,0.68-2.19,1.82-3.13,2.5C205.05,129.12,205.2,130.32,207.49,131.52z M228.58,194.88
		c0-1.87,0-3.47,0-5.18C225.17,192.17,225.17,192.25,228.58,194.88z M71.33,195c1.2-0.86,2.63-1.63,2.63-2.79
		c0-1-1.37-1.88-2.63-2.65C71.33,191.44,71.33,193.01,71.33,195z M71.35,174.25c3.08-2.01,3.85-2.45,0-4.78
		C71.35,171.06,71.35,172.62,71.35,174.25z M228.69,169.24c-3.54,2.63-3.51,3.2,0,4.89C228.69,172.59,228.69,171.07,228.69,169.24z
		 M71.41,237.07c3.43-2.42,3.43-2.75,0-4.98C71.41,233.76,71.41,235.36,71.41,237.07z M228.73,237.22c0-1.65,0-2.89,0-4.14
		c0-0.92-0.14-1.3-1.11-0.57C225.27,234.3,225.32,234.72,228.73,237.22z M71.33,257.5c3.5-2.43,3.48-3.01,0-4.81
		C71.33,254.23,71.33,255.73,71.33,257.5z M228.57,257.54c0-1.83,0-3.37,0-5.02C225.22,254.89,225.22,254.99,228.57,257.54z
		 M112.67,54.56c4.39,0.17,4.39,0.17,3.52-2.54C115.17,52.76,114.18,53.47,112.67,54.56z M215.45,98.9c0.28-2.38-0.1-4.28-0.73-6.44
		C214.49,96.95,214.49,96.95,215.45,98.9z M183.55,52.09c-0.36,2.69-0.22,2.78,2.68,1.75C185.38,53.17,184.62,52.41,183.55,52.09z
		 M84.62,98.98c1.27-2.26,0.48-4.25,0.61-6.15C84.74,94.69,84.15,96.54,84.62,98.98z"/>
</g>
</svg>
