<?xml version="1.0" encoding="utf-8"?>
<!-- Generator: Adobe Illustrator 24.0.2, SVG Export Plug-In . SVG Version: 6.00 Build 0)  -->
<svg version="1.1" id="Layer_1" xmlns="http://www.w3.org/2000/svg" xmlns:xlink="http://www.w3.org/1999/xlink" x="0px" y="0px"
	 viewBox="0 0 300 300" style="enable-background:new 0 0 300 300;" xml:space="preserve">
<style type="text/css">
	.st0{fill:#0D0D0D;}
	.st1{fill:#161617;}
	.st2{fill:#090A0A;}
	.st3{fill:#0F1010;}
	.st4{fill:#070707;}
	.st5{fill:#131212;}
	.st6{fill:#232121;}
</style>
<g>
	<path d="M19.12,83.05c2.74-4.87,7.83-5.52,12.76-6.9c0-4.36,0.08-8.69-0.04-13.01c-0.04-1.62,0.47-2.42,2-2.98
		c10.13-3.69,20.58-5.98,31.27-7.1c15.87-1.67,31.61-0.96,47.08,3.39c13.62,3.83,25.9,10.21,36.89,19.1
		c0.65,0.53,1.31,1.04,1.84,1.46c4.68-3.26,9.06-6.64,13.76-9.52c17.93-10.97,37.6-15.45,58.47-15.23
		c15.34,0.16,30.3,2.61,44.81,7.7c2.07,0.73,2.69,1.76,2.6,3.85c-0.16,3.91,0.02,7.84-0.08,11.75c-0.04,1.5,0.49,2.13,1.9,2.42
		c1.24,0.26,2.44,0.72,3.62,1.21c3.3,1.36,4.89,3.54,4.88,7.44c-0.12,50.68-0.08,101.37-0.08,152.05c0,1,0,2,0,3.28
		c-1.24,0-2.24,0-3.23,0c-35.61,0-71.21-0.02-106.82,0.06c-1.63,0-3.49,0.61-4.85,1.52c-8.57,5.74-20.94,5.63-29.36-0.35
		c-0.9-0.64-2.12-1.18-3.19-1.18c-37.82-0.06-75.64-0.05-113.46-0.04c-0.25,0-0.51,0.04-0.76,0.05
		C19.12,189.04,19.12,136.04,19.12,83.05z M262.87,218.54c0.03-0.47,0.11-1.05,0.11-1.63c0.01-49.56,0-99.13,0.04-148.69
		c0-1.72-0.66-2.28-2.18-2.73c-11.56-3.44-23.36-5.42-35.41-5.72c-24.34-0.6-46.64,5.36-66.09,20.57c-1.84,1.44-2.65,2.88-2.65,5.29
		c0.09,28.1,0.06,56.21,0.06,84.31c0,0.95,0,1.91,0,2.86c-0.39,0.22-0.78,0.45-1.17,0.67c-0.92-1.34-1.85-2.69-2.97-4.33
		c0,20.37,0,40.15,0,60.11c0.7-0.24,1.18-0.39,1.64-0.58c16.46-6.89,33.45-11.89,51.13-14.45c13.81-2,27.65-2.48,41.41,0.25
		C252.18,215.54,257.46,217.16,262.87,218.54z M149.74,229.28c0-20.06,0-39.95,0-60.25c-1.49,1.56-2.68,2.81-4.28,4.47
		c0-1.56,0-2.47,0-3.38c0-28.44-0.01-56.89,0.04-85.33c0-1.69-0.48-2.8-1.82-3.86c-7.26-5.74-15.08-10.48-23.7-13.86
		c-25.74-10.09-51.73-9.03-77.89-1.84c-2.08,0.57-2.78,1.46-2.77,3.66c0.07,48.97,0.05,97.94,0.05,146.9c0,0.9,0,1.79,0,2.93
		c0.97-0.26,1.54-0.37,2.08-0.56c9.54-3.46,19.44-4.96,29.53-5.14c21.51-0.38,42.25,4,62.59,10.58
		C138.96,225.35,144.26,227.35,149.74,229.28z"/>
	<path d="M249.85,137.78c-0.55,2.09-1.01,3.86-1.53,5.84c-26.05-6.26-50.74-2.12-74.73,8.97c-0.94-1.68-1.84-3.28-2.94-5.26
		C196.07,135.17,222.13,131.13,249.85,137.78z"/>
	<path d="M249.85,103.87c-0.56,2.15-1.01,3.85-1.54,5.88c-12.59-3.18-25.26-3.8-37.98-2.08c-12.7,1.71-24.9,5.25-36.62,11.09
		c-0.51-0.85-1.04-1.68-1.52-2.54c-0.45-0.8-0.85-1.63-1.47-2.83C196.04,101.3,222.07,97.16,249.85,103.87z"/>
	<path d="M249.6,86.59c0,0.63,0.05,0.9-0.01,1.13c-0.38,1.48-0.78,2.95-1.26,4.77c-25.9-6.24-50.6-2.19-74.71,8.97
		c-0.91-1.61-1.85-3.26-2.97-5.26C196.1,84.04,222.17,80.03,249.6,86.59z"/>
	<path d="M173.57,134.85c-0.95-1.71-1.85-3.31-2.95-5.26c25.45-12.08,51.5-16.27,78.94-9.59c0,0.61,0.07,0.96-0.01,1.27
		c-0.37,1.47-0.79,2.94-1.25,4.64C222.36,119.55,197.72,123.77,173.57,134.85z"/>
	<path d="M248.35,193.85c-22.8-5.7-49.09-3.27-74.74,8.93c-0.9-1.58-1.82-3.18-2.98-5.21c25.35-12.11,51.37-16.25,79.18-9.58
		C249.3,190.02,248.85,191.86,248.35,193.85z"/>
	<path d="M249.87,154.2c-0.58,2.21-1.05,3.99-1.55,5.88c-26.08-6.35-50.73-2.1-74.63,8.89c-0.27-0.39-0.53-0.71-0.73-1.07
		c-0.7-1.25-1.38-2.51-2.27-4.13C196.01,151.58,222.07,147.6,249.87,154.2z"/>
	<path d="M248.37,176.84c-32.26-4.89-44.68-3.39-74.73,9.03c-0.92-1.6-1.86-3.23-2.79-4.84c15.14-11.59,60.44-17.13,78.89-9.63
		C249.31,173.13,248.86,174.91,248.37,176.84z"/>
	<path d="M93.61,83.78c0,19.17,0,38.12,0,57.34c-13.21-1.66-26.19-1.01-39.27,2.45c-0.05-1.2-0.13-2.11-0.13-3.02
		c-0.01-17.2,0.03-34.4-0.06-51.59c-0.01-2.1,0.64-2.89,2.65-3.43C68.93,82.25,81.18,82.67,93.61,83.78z"/>
	<path d="M55.76,159.67c-0.51-1.93-0.97-3.7-1.55-5.89c27.7-6.75,53.77-2.6,79.17,9.51c-0.84,1.55-1.46,2.74-2.12,3.92
		c-0.24,0.43-0.55,0.83-0.93,1.4c-11.61-5.66-23.76-9.23-36.45-11.01C81.11,155.82,68.47,156.49,55.76,159.67z"/>
	<path d="M54.21,170.65c27.76-6.71,53.8-2.6,79.21,9.54c-1.09,1.95-1.98,3.55-2.98,5.33c-11.68-5.69-23.82-9.29-36.52-11.04
		c-12.77-1.77-25.42-1.13-38.16,2.07C55.26,174.64,54.8,172.87,54.21,170.65z"/>
	<path d="M133.26,197.38c-0.7,1.28-1.34,2.47-2,3.64c-0.24,0.43-0.55,0.83-0.86,1.28c-23.93-10.98-48.57-15.26-74.56-8.89
		c-0.3-0.92-0.59-1.71-0.8-2.51c-0.26-0.97-0.45-1.96-0.67-2.91C69.72,180.08,114.86,185.41,133.26,197.38z"/>
	<path d="M133.4,113.04c-1.07,1.91-1.97,3.51-2.61,4.66c-10.1-3.37-19.95-6.65-30.18-10.07c0-1.29,0-3.29,0-5.49
		C111.95,104.15,122.73,107.72,133.4,113.04z"/>
	<path d="M133.37,129.25c-1.09,1.95-1.99,3.56-2.57,4.6c-10.24-3.39-20.17-6.68-30.25-10.03c0-1.5,0-3.43,0-5.57
		C112,120.44,122.84,123.87,133.37,129.25z"/>
	<path d="M100.53,90.41c0-1.48,0-3.33,0-5.48c11.5,2.02,22.27,5.58,32.83,10.9c-0.99,1.79-1.87,3.39-2.56,4.65
		C120.67,97.12,110.75,93.81,100.53,90.41z"/>
	<path d="M133.36,146.99c-1.06,1.93-1.92,3.48-2.54,4.62c-10.18-3.38-20.11-6.68-30.26-10.05c0-1.41,0-3.34,0-5.5
		C112.07,138.06,122.84,141.68,133.36,146.99z"/>
</g>
</svg>
