<?xml version="1.0" encoding="utf-8"?>
<!-- Generator: Adobe Illustrator 24.0.2, SVG Export Plug-In . SVG Version: 6.00 Build 0)  -->
<svg version="1.1" id="Layer_1" xmlns="http://www.w3.org/2000/svg" xmlns:xlink="http://www.w3.org/1999/xlink" x="0px" y="0px"
	 viewBox="0 0 300 300" style="enable-background:new 0 0 300 300;" xml:space="preserve">
<style type="text/css">
	.st0{fill:#0D0D0D;}
	.st1{fill:#161617;}
	.st2{fill:#090A0A;}
	.st3{fill:#0F1010;}
	.st4{fill:#070707;}
	.st5{fill:#131212;}
	.st6{fill:#232121;}
</style>
<g>
	<path d="M23.46,249.38c1.36-5.63,5.08-9.55,9.21-13.33c16.65-15.23,33.2-30.58,49.77-45.91c1.58-1.46,3.19-2.41,5.29-1.28
		c2.52,1.36,2.54,4.27,0.04,6.59c-6.22,5.77-12.45,11.52-18.69,17.28c-11.44,10.56-22.89,21.1-34.32,31.67
		c-4.87,4.51-5.19,11.11-0.8,15.55c4.27,4.33,11.01,4.21,15.38-0.5c22.67-24.48,45.28-49,67.91-73.52c0.27-0.29,0.48-0.65,0.61-0.82
		c-2.98-3-5.87-5.92-9.02-9.09c-2.19,2.02-4.44,4.27-6.9,6.28c-1,0.82-2.48,1.59-3.66,1.49c-1.05-0.09-2.65-1.28-2.84-2.22
		c-0.27-1.31,0.14-3.2,1-4.2c1.97-2.3,4.37-4.24,6.65-6.26c0.99-0.88,1.37-1.63,1.09-3.13c-1.77-9.58,6.11-17,15.66-14.96
		c0.72,0.15,1.89,0.04,2.29-0.43c5.88-6.87,11.67-13.83,17.53-20.82c-6.71-3.35-7.88-9.89-9.26-16.01c-0.94-4.13,1.88-7.3,4.77-9.87
		c-2.26-2.11-4.44-4.15-6.76-6.32c-8.56,5.25-18.6,1.65-21.06-8.21c-1.09-4.37-0.13-8.45,3.05-11.65
		c15.55-15.67,31.14-31.3,46.84-46.82c4.61-4.56,11.79-4.61,16.69-0.58c5.83,4.79,7.34,11.46,3.92,17.34
		c-0.37,0.63-0.77,1.23-1.2,1.9c2.15,2.1,4.25,4.15,6.05,5.9c2.58-1.48,4.99-3.19,7.66-4.25c1.46-0.58,3.48-0.44,5.04,0.04
		c3.2,1,6.33,2.31,9.35,3.78c1.25,0.61,2.27,1.85,3.19,2.97c1.7,2.06,3.13,4.35,4.91,6.33c2.34,2.6,2.78,4.68,0.98,6.43
		c-1.76,1.72-3.74,1.42-6.2-0.94c-0.35-0.34-0.72-0.66-0.83-0.76c-19.42,19.43-38.78,38.8-57.97,58
		c5.21,5.25,10.82,10.89,16.24,16.35c19.18-19.17,38.56-38.54,58.03-58.01c-0.69-0.74-1.59-1.58-2.34-2.53
		c-1.33-1.69-1.19-3.8,0.33-5.1c1.59-1.36,3.34-1.34,4.95-0.07c1.03,0.81,1.83,1.91,2.85,2.73c1.45,1.16,3,2.2,4.51,3.28
		c0.6,0.43,1.42,0.69,1.81,1.25c3.33,4.85,6.45,9.99,5.59,16.06c-0.41,2.85-2.66,5.43-4.21,8.39c1.69,1.51,3.88,3.47,6.27,5.61
		c3.03-2.27,6.95-3.37,11.29-2.13c8.65,2.47,14.92,13.94,6.17,22.72c-13.14,13.19-26.32,26.34-39.5,39.49
		c-0.63,0.63-1.46,1.07-2.2,1.6c0.13,0.3,0.27,0.6,0.4,0.91c0.82,0,1.64,0,2.46,0c14.08,0,28.17-0.03,42.25,0.01
		c6.49,0.02,10.95,3.35,12.45,9.12c1.85,7.12-3.67,14.65-11.02,14.58c-2.78-0.03-4.06,1.03-5.17,3.33
		c-2.62,5.42-4.16,11.06-4.3,17.08c-0.02,0.65,0,1.34-0.19,1.96c-0.59,1.98-1.94,3.11-4.03,2.86c-1.92-0.23-3.13-1.44-3.24-3.45
		c-0.08-1.47-0.02-2.95-0.02-4.81c-0.95,0-1.91,0-2.86,0c-14.08,0-28.17,0-42.25,0c-0.82,0-1.65,0.03-2.47-0.06
		c-2.12-0.24-3.26-1.51-3.3-3.61c-0.04-2.12,1.17-3.36,3.21-3.73c0.72-0.13,1.48-0.04,2.22-0.04c14.66,0,29.32,0,43.98,0
		c0.9,0,1.8,0,2.72,0c1.18-3.14,2.31-6.17,3.53-9.43c-1.09,0-1.98,0-2.87,0c-45.38,0-90.77,0.01-136.15-0.04
		c-1.88,0-3.22,0.46-4.44,1.94c-2.03,2.45-4.29,4.71-6.88,7.53c1.43,0,2.29,0,3.14,0c21,0,42.01,0,63.01,0
		c0.74,0,1.51-0.1,2.22,0.06c2.01,0.45,3.21,1.73,3.1,3.84c-0.1,1.96-1.22,3.2-3.21,3.47c-0.89,0.12-1.81,0.08-2.71,0.08
		c-21.83,0-43.65,0-65.48,0c-0.97,0-1.95,0-3.16,0c-0.8,9.14,0.34,17.7,4.58,25.72c0.25,0.47,1.15,0.82,1.74,0.83
		c2.38,0.01,4.76-0.22,7.15-0.22c45.47-0.02,90.93-0.01,136.4-0.01c1.06,0,2.12,0,3.54,0c-0.49-1.33-0.9-2.36-1.26-3.41
		c-0.7-2.07,0.12-3.64,1.94-4.51c1.86-0.9,3.54-0.32,4.73,1.41c0.28,0.4,0.51,0.85,0.67,1.32c1.2,3.36,2.88,5.34,7.12,5.57
		c6.57,0.35,10.72,6.11,10.3,12.74c-0.38,5.84-5.57,10.68-11.76,10.86c-2.47,0.08-4.94,0.02-7.41,0.02c-49.42,0-98.84,0-148.26,0
		c-6.38,0-10.99-3.15-12.56-8.7c-0.4-1.4-0.42-2.9-0.68-4.79c-1.4,0-2.93-0.06-4.45,0.01c-4.39,0.21-7.69-1.53-9.7-5.46
		c-1.74-3.42-3.37-6.9-5.11-10.49c-2.25,2.42-4.54,4.88-6.82,7.34c-4.75,5.15-9.51,10.28-14.22,15.45
		c-5.02,5.5-11.14,7.94-18.43,6.06c-7.03-1.81-11.46-6.47-13.2-13.59c-0.05-0.22-0.26-0.4-0.4-0.6
		C23.46,253.66,23.46,251.52,23.46,249.38z M186.29,254.2c-25.45,0-50.89,0-76.34,0c-0.82,0-1.65-0.03-2.47,0.04
		c-2.23,0.19-3.83,1.8-3.99,3.97c-0.17,2.3,1.23,4.2,3.53,4.63c0.88,0.17,1.8,0.17,2.7,0.17c50.97,0.01,101.95,0.01,152.92,0
		c0.98,0,1.99-0.01,2.95-0.2c2.09-0.42,3.6-2.45,3.45-4.49c-0.15-2.11-1.82-3.87-3.95-4.07c-0.9-0.09-1.81-0.05-2.72-0.05
		C237.02,254.2,211.65,254.2,186.29,254.2z M118.22,196c1.21,0,1.78,0,2.36,0c47.52,0,95.04,0,142.56,0c0.58,0,1.26,0.17,1.71-0.07
		c1.25-0.67,2.82-1.25,3.53-2.35c1.98-3.06-0.45-6.51-4.48-6.51c-41.76-0.02-83.51-0.02-125.27,0.03c-0.98,0-2.08,0.39-2.92,0.92
		c-3.1,1.93-6.39,2.44-9.94,1.83c-0.7-0.12-1.74-0.07-2.18,0.36C121.83,191.89,120.25,193.76,118.22,196z M193.21,179.43
		c-2.08-5.26-1.81-10.03,1.26-13.98c-2.16-2.32-4.21-4.51-6.54-7.01c-0.68,0.82-1.29,1.72-2.06,2.46c-2.13,2.03-4.87,3.44-7.62,2.74
		c-6.09-1.55-12.66-2.61-16.09-9.29c-6.99,5.85-13.93,11.63-20.83,17.47c-0.41,0.35-0.7,1.12-0.65,1.66
		c0.18,1.94,0.52,3.86,0.83,5.94C158.57,179.43,175.74,179.43,193.21,179.43z M172.17,43.9c-0.29-3.44-1.83-5.34-4.18-6.44
		c-2.34-1.1-4.48-0.35-6.28,1.45c-15.12,15.13-30.26,30.24-45.36,45.39c-2.7,2.71-2.61,5.56,0.01,8.23
		c2.73,2.78,5.64,2.92,8.41,0.16c15.15-15.1,30.28-30.22,45.35-45.4C171.17,46.25,171.7,44.71,172.17,43.9z M256.93,128.91
		c-0.09-3.6-1.75-5.35-4.05-6.53c-2.27-1.16-4.37-0.47-6.07,1.24c-15.26,15.22-30.5,30.46-45.71,45.73
		c-2.59,2.6-2.38,5.59,0.31,8.24c2.56,2.53,5.55,2.69,8.05,0.19c15.27-15.21,30.51-30.45,45.69-45.74
		C256.13,131.06,256.57,129.57,256.93,128.91z M230.38,92.73c-20.11,20.11-40.13,40.13-60.14,60.14c0.38,0.18,1.16,0.61,1.98,0.94
		c8.42,3.33,6.55,3.67,12.75-2.52c15.57-15.53,31.12-31.07,46.6-46.69c0.98-0.99,2.06-2.81,1.8-3.94
		C232.71,97.76,231.3,95.04,230.38,92.73z M201.28,63.56c-2.45-0.96-5.18-2.22-8.05-3.03c-0.9-0.25-2.44,0.45-3.2,1.2
		c-16.99,16.88-33.92,33.83-50.81,50.8c-0.7,0.7-1.56,1.99-1.35,2.71c0.91,3.09,2.2,6.06,3.18,8.63
		C161.21,103.69,181.16,83.71,201.28,63.56z M200.06,159.2c12.2-12.2,24.39-24.4,36.6-36.61c-1.93-1.93-3.99-4-5.9-5.92
		c-12.22,12.23-24.41,24.42-36.62,36.63C196.06,155.22,198.14,157.29,200.06,159.2z M140.53,99.79
		c12.35-12.34,24.55-24.54,36.33-36.32c-1.8-2.01-3.75-4.2-5.33-5.97c-12.25,12.25-24.43,24.44-36.64,36.65
		C136.69,95.95,138.72,97.98,140.53,99.79z M156.85,148.99c-3.99-3.99-7.86-7.86-11.88-11.87c-5.74,6.85-11.67,13.92-17.4,20.76
		c2.91,2.94,5.61,5.67,8.46,8.56C142.96,160.64,149.98,154.76,156.85,148.99z M134.29,177.99c-0.74-1.68-0.97-3.02-1.75-3.84
		c-4.16-4.34-8.39-8.62-12.75-12.75c-1.95-1.85-5.14-1.52-6.94,0.31c-1.86,1.89-2.13,4.96-0.24,6.94
		c4.14,4.35,8.41,8.59,12.75,12.75c1.53,1.47,3.7,1.88,5.47,0.61C132.23,181.01,133.15,179.36,134.29,177.99z M97.4,249.47
		c-3.99-7.88-5.47-15.86-5.75-24.73c-3,3.25-5.62,6.03-8.14,8.9c-0.34,0.39-0.43,1.31-0.23,1.84c1.63,4.27,3.29,8.53,5.11,12.71
		c0.27,0.62,1.37,1.16,2.13,1.22C92.65,249.57,94.78,249.47,97.4,249.47z"/>
	<path d="M170.18,237.11c-13.58,0-27.17,0-40.75,0c-0.82,0-1.65,0.02-2.47-0.06c-2.09-0.2-3.59-1.77-3.57-3.69
		c0.02-1.91,1.55-3.5,3.62-3.7c0.65-0.06,1.32-0.02,1.97-0.02c27.58,0,55.16,0,82.74,0c0.82,0,1.68-0.11,2.46,0.09
		c1.98,0.51,3.15,1.78,2.99,3.92c-0.15,1.99-1.29,3.15-3.27,3.38c-0.9,0.1-1.81,0.08-2.71,0.08
		C197.51,237.11,183.84,237.11,170.18,237.11z"/>
</g>
</svg>
