<?xml version="1.0" encoding="utf-8"?>
<!-- Generator: Adobe Illustrator 24.0.2, SVG Export Plug-In . SVG Version: 6.00 Build 0)  -->
<svg version="1.1" id="Layer_1" xmlns="http://www.w3.org/2000/svg" xmlns:xlink="http://www.w3.org/1999/xlink" x="0px" y="0px"
	 viewBox="0 0 300 300" style="enable-background:new 0 0 300 300;" xml:space="preserve">
<style type="text/css">
	.st0{fill:#0D0D0D;}
	.st1{fill:#161617;}
	.st2{fill:#090A0A;}
	.st3{fill:#0F1010;}
	.st4{fill:#070707;}
	.st5{fill:#131212;}
	.st6{fill:#232121;}
</style>
<g>
	<path d="M67.02,40.92c-4.12-4.01-8.47-8.24-12.63-12.3c3.57-3.57,6.93-6.93,10.44-10.45C75.67,29,86.79,40.1,98.01,51.31
		c20.37-16.98,43.82-24.58,70.21-22.19c23.51,2.13,43.42,12.13,59.72,29.17c30.38,31.77,36.48,86.27,2.95,125.94
		c11.12,11.09,22.25,22.18,33.35,33.24c-3.52,3.39-6.89,6.65-10.14,9.78c-3.96-3.96-8.28-8.28-12.69-12.69
		c-21.62,18.96-46.42,29.24-74.78,31.16c0,7.21,0,14.33,0,21.7c12.87,0,25.66,0,38.57,0c0,4.93,0,9.62,0,14.41
		c-30.62,0-61.2,0-91.87,0c0-4.79,0-9.42,0-14.28c12.88,0,25.67,0,38.63,0c0-7.4,0-14.57,0-21.46
		c-49.99-5.46-86.93-29.74-106.16-76.39C26.63,123.19,35.63,80.02,67.02,40.92z M116.8,120.06c2.41,0.57,4.6,0.94,6.69,1.61
		c5.47,1.76,10.71,1.94,15.55-1.74c0.05-0.04,0.11-0.1,0.17-0.11c0.69-0.08,1.4-0.32,2.06-0.21c9.28,1.48,18.56,3.03,27.84,4.49
		c1.15,0.18,1.54,0.62,1.81,1.71c0.98,4.03,2.15,8.02,3.14,12.04c0.19,0.75,0.11,1.72-0.2,2.43c-2.39,5.4-4.89,10.74-7.28,16.13
		c-0.37,0.82-0.58,1.8-0.55,2.69c0.18,5.8,0.46,11.59,0.66,17.39c0.08,2.21,0.01,4.42,0.01,6.76c-1.97-0.56-3.8-1.25-5.7-1.57
		c-1.96-0.33-2.94-1.35-3.56-3.18c-3.09-9.13-6.47-18.16-9.34-27.35c-1.24-3.98-2.97-6.99-7.14-8.23c-0.95-0.28-1.89-0.75-2.71-1.32
		c-0.7-0.49-1.47-1.15-1.75-1.91c-0.96-2.63-1.92-5.3-2.5-8.04c-0.49-2.3-1.67-2.95-3.87-3.01c-8.51-0.21-17.01-0.55-25.51-0.91
		c-0.9-0.04-1.86-0.29-2.65-0.71c-6.26-3.39-12.47-6.85-18.71-10.28c-1.02-0.56-2.06-1.07-3.16-1.64
		c-3.25,28.13,9.65,58.78,36.64,75.12c28.95,17.53,58.55,17.31,86.85-1.21c24.53-16.05,35.45-39.95,35.49-69.45
		c-5.35,3.17-10.29,6.1-15.21,9.01c-1.22-0.95-2.31-1.86-3.47-2.67c-4.12-2.87-7.95-5.93-9.28-11.15c-0.38-1.48-1.15-2.85-1.76-4.27
		c-1.48-3.43-2.96-6.85-4.5-10.41c-5.33,2.35-10.48,4.6-15.61,6.89c-0.91,0.4-1.57,0.66-2.45-0.27c-4.36-4.61-8.84-9.11-13.21-13.71
		c-0.38-0.4-0.55-1.33-0.37-1.88c0.86-2.67,1.68-5.39,2.88-7.92c1.3-2.74,1.12-4.83-1.48-6.63c-1.25-0.87-1.52-2.03-1.1-3.69
		c1.55-6.17,2.78-12.42,4.3-18.59c0.29-1.17,1.23-2.29,2.13-3.18c1.31-1.31,2.85-2.41,4.46-3.73c-0.75-0.27-1.26-0.41-1.72-0.64
		c-3.54-1.75-6.49-1.13-9.39,1.64c-2.38,2.28-5.26,4.05-7.98,6.1c-1.9-3.51-3.63-6.85-5.51-10.11c-0.34-0.59-1.29-1.19-1.94-1.17
		c-3.43,0.14-6.88,0.27-10.27,0.79c-12.61,1.95-24.29,6.38-34.58,13.99c-4.41,3.26-8.43,7.04-12.63,10.58
		c0.12,0.2,0.23,0.41,0.35,0.61c0.64,0.08,1.28,0.21,1.93,0.24c4.45,0.16,8.92,0.21,13.36,0.48c1.62,0.1,3.45,0.34,4.78,1.16
		c4.69,2.9,9.19,6.09,13.79,9.13c0.91,0.6,1.2,1.13,0.81,2.25c-3.13,8.91-6.16,17.84-9.29,26.75c-0.36,1.03-1.03,2.02-1.77,2.84
		C121.97,114.66,119.48,117.22,116.8,120.06z M77.76,51.65C42.79,90.18,38.91,156.69,83.12,200.2
		c44.58,43.87,110.41,38.2,147.24,4.32c-3.28-3.26-6.56-6.53-9.93-9.88c-18.72,15.49-40.26,23.33-64.81,22.37
		c-24.55-0.96-45.6-10.21-62.97-27.44c-15.94-15.82-25.07-35.15-27.14-57.48c-2.45-26.47,5.18-50.01,22.09-70.38
		C84.27,58.3,81.02,54.97,77.76,51.65z"/>
</g>
</svg>
