<?xml version="1.0" encoding="utf-8"?>
<!-- Generator: Adobe Illustrator 24.0.2, SVG Export Plug-In . SVG Version: 6.00 Build 0)  -->
<svg version="1.1" id="Layer_1" xmlns="http://www.w3.org/2000/svg" xmlns:xlink="http://www.w3.org/1999/xlink" x="0px" y="0px"
	 viewBox="0 0 300 300" style="enable-background:new 0 0 300 300;" xml:space="preserve">
<style type="text/css">
	.st0{fill:#0D0D0D;}
	.st1{fill:#161617;}
	.st2{fill:#090A0A;}
	.st3{fill:#0F1010;}
</style>
<g>
	<path class="st0" d="M76.92,20.1c0,7.3,3.28,12.17,9.77,15.85c3.34,1.89,4.35,6.46,4.29,10.69c-0.08,5.66,0.18,11.33-0.1,16.98
		c-0.16,3.22,0.98,4.15,3.96,3.76c1.47-0.19,2.99-0.06,4.49,0c1.59,0.06,3.48,0.68,3.42,2.26c-0.23,5.74,2.53,12.07-2.63,16.98
		c-3.81,3.62-4.71,7.96-4.48,13.04c0.33,7.14,0.2,14.32,0.03,21.47c-0.07,2.8,0.3,4.09,3.67,4.03c7.66-0.15,7.24,0.11,7.79,7.56
		c0.51,6.94-1.03,12.71-6.15,17.49c-1.62,1.51-2.44,3.33-2.43,5.72c0.07,30.8,0.05,61.6,0.06,92.4c0,0.46,0.19,0.93,0.32,1.49
		c2.36-0.95,3.3-2.58,3.17-5.04c-0.13-2.49,0.23-5.03-0.08-7.48c-0.76-6.08,0.74-11.15,5.84-14.85c2-1.45,2.16-3.44,2.11-5.72
		c-0.24-10.15-0.45-20.31,1.33-30.37c3.4-19.23,14.2-33.3,30.54-43.42c4.36-2.7,8.88-5.16,13.38-7.64
		c10.92-6.01,17.2-14.77,16.72-27.67c-0.11-2.99,0.04-5.99-0.03-8.99c-0.06-2.28,0.72-4.19,3.08-4.33c2.59-0.16,3.14,1.88,3.11,4.1
		c-0.04,3.16,0.03,6.33-0.02,9.49c-0.22,12.42,5.76,21.22,16.29,27.02c9.46,5.22,18.94,10.33,26.84,17.89
		c11.2,10.72,17,24.03,18.45,39.24c0.76,7.94,1.36,15.95,0.49,23.93c-0.3,2.71,0.16,4.91,2.38,6.62c4.8,3.7,6.3,8.63,5.4,14.47
		c-1.06,6.9,0.61,12.72,6.68,16.84c1.93,1.31,2.51,3.27,2.43,5.64c-0.16,4.66-0.28,9.34,0.02,13.98c0.29,4.39-1.33,5.76-5.71,5.73
		c-26.63-0.16-53.26-0.07-79.9-0.07c-22.64,0-45.29-0.47-67.91,0.16c-15.29,0.42-30.56,0.41-45.84,0.56
		c-6.16,0.06-6.43-0.24-6.43-6.48c-0.01-36.29-0.31-72.59,0.22-108.88c0.13-8.87-2.09-15.76-8.5-21.53c0-5.66,0-11.32,0-16.99
		c2.28-1.3,4.8-1.11,7.23-0.93c2.81,0.22,4.13-0.29,4.02-3.65c-0.27-8.8-0.14-17.62-0.07-26.43c0.01-1.93-0.25-3.69-1.78-4.94
		c-6.05-4.96-5.82-11.71-5.56-18.57c0.11-3.03,1.55-4.16,4.33-4.16c1.5,0,3.01-0.15,4.48,0.02c2.62,0.31,3.43-0.67,3.35-3.3
		c-0.18-5.81,0.01-11.63-0.07-17.45c-0.06-4.22,0.97-8.83,4.29-10.67c6.55-3.65,9.73-8.56,9.76-15.83
		C74.26,20.1,75.59,20.1,76.92,20.1z M175.33,251.8c-21.31,0-42.62,0.07-63.93-0.07c-3.39-0.02-5.68,1.12-8.34,3.2
		c-4.87,3.81-3.77,8.73-3.92,13.58c-0.08,2.65-0.27,4.64,3.68,4.63c3.8-0.01,3.98-1.73,3.8-4.52c-0.12-1.82-0.07-3.66,0.02-5.49
		c0.09-1.86,0.88-3.26,2.99-3.2c2.02,0.05,3,1.39,3.11,3.22c0.15,2.49,0.06,4.99,0.06,7.49c0,1.21-0.06,2.37,1.69,2.34
		c4.16-0.07,8.76,0.98,12.33-0.49c2.58-1.07,0.47-5.76,0.96-8.79c0.05-0.33,0.02-0.67,0.05-1c0.17-1.75,1.15-2.74,2.9-2.77
		c1.75-0.03,2.83,0.95,3.06,2.64c0.17,1.31,0.09,2.66,0.1,3.99c0.01,6.42,0.01,6.42,6.63,6.42c0.5,0,1,0,1.5,0
		c6.85,0,6.85,0,6.87-6.65c0-1.16-0.1-2.35,0.07-3.49c0.28-1.86,1.36-3.05,3.37-2.91c1.78,0.12,2.62,1.3,2.67,3.01
		c0.06,2.5,0.01,5,0.04,7.49c0.01,0.94-0.27,2.34,1.07,2.39c4.32,0.16,8.91,0.97,12.88-0.21c2.48-0.74,0.57-5.04,1.02-7.7
		c0.11-0.65-0.05-1.35,0.1-1.99c0.4-1.77,1.32-3.1,3.36-3c1.82,0.1,2.63,1.4,2.74,2.99c0.17,2.32,0.04,4.66,0.16,6.99
		c0.05,1.05-0.57,2.81,1.04,2.89c4.31,0.22,8.9,0.95,12.87-0.23c2.77-0.82,0.62-5.02,1.16-7.64c0.13-0.64,0.01-1.33,0.08-1.99
		c0.18-1.63,0.87-2.91,2.7-3c2.02-0.09,3.04,1.2,3.38,2.98c0.21,1.13,0.09,2.32,0.09,3.49c0.03,6.59,0.03,6.59,6.44,6.59
		c8.34,0,8.34,0,8.53-8.07c0.05-2.15-0.33-4.78,2.74-4.94c3.31-0.18,3.35,2.4,3.4,4.87c0.17,8.14,0.21,8.14,8.35,8.14
		c0.17,0,0.34-0.02,0.5,0c4.73,0.81,6.97-0.59,6.26-5.93c-0.34-2.57-1.59-7.03,3.03-6.97c4.7,0.06,3.03,4.57,2.8,7.07
		c-0.46,4.87,1.13,6.18,5.96,5.99c3.93-0.15,5.93-0.73,5.15-5.09c-0.26-1.45-0.04-2.99-0.04-4.49c-0.01-6.86-4.81-11.77-11.55-11.77
		C217.95,251.79,196.64,251.79,175.33,251.8z M175.18,224.14c-18.79,0-37.59-0.01-56.38,0.02c-1.61,0-3.25-0.32-4.79,0.79
		c-4.53,3.27-7.79,14.35-5.52,19.31c0.23,0.51,0.81,1.01,1.35,1.21c4.38,1.63,7.05-0.29,7.06-5.02c0.01-1.5-0.09-3,0.06-4.49
		c0.19-1.91,1.34-3.08,3.3-2.95c1.73,0.11,2.64,1.25,2.68,2.99c0.04,2.16-0.01,4.33,0.05,6.49c0.03,1.08-0.44,2.78,1.16,2.84
		c4.63,0.17,9.51,0.85,13.83-0.35c2.28-0.64,0.53-5.09,0.94-7.78c0.1-0.65-0.07-1.4,0.18-1.97c0.55-1.25,1.41-2.3,2.98-2.22
		c1.74,0.08,2.79,1.02,2.86,2.78c0.09,2.33,0.04,4.66,0.08,6.98c0.02,1.14-0.18,2.62,1.47,2.66c4.48,0.09,9.27,0.95,13.34-0.35
		c2.68-0.86,0.59-5.38,1.09-8.22c0.06-0.32-0.01-0.67,0.07-0.99c0.44-1.8,1.46-3.07,3.45-2.84c1.72,0.19,2.54,1.38,2.55,3.12
		c0.01,1.83,0.2,3.68-0.02,5.48c-0.36,3.05,0.74,4.33,3.85,3.95c1.48-0.18,2.99-0.03,4.49-0.03c7.36,0,7.36,0,7.6-7.53
		c0.02-0.5-0.02-1,0.02-1.5c0.16-2.1,1.18-3.55,3.38-3.5c2.07,0.05,2.7,1.6,2.72,3.46c0.01,2,0,3.99,0.03,5.99
		c0.02,1.12-0.29,2.81,1.2,2.86c4.63,0.17,9.46,0.75,13.82-0.37c2.12-0.54,0.47-4.8,0.86-7.35c0.07-0.49-0.04-1.01,0.06-1.49
		c0.37-1.78,1.25-3.16,3.27-3.1c2.11,0.06,2.76,1.56,2.81,3.39c0.06,1.99,0.01,3.99,0.05,5.99c0.02,1.12-0.27,2.86,1.13,2.92
		c4.62,0.2,9.46,0.78,13.82-0.33c2.14-0.55,0.48-4.8,0.87-7.35c0.07-0.49-0.05-1.01,0.05-1.49c0.38-1.77,1.26-3.15,3.27-3.13
		c2.13,0.02,2.77,1.59,2.86,3.37c0.11,2.16,0.07,4.32,0.07,6.48c0,1.21,0.09,2.2,1.58,2.67c4.54,1.44,7.02-0.32,7.03-5.13
		c0-2,0.01-3.99-0.01-5.99c-0.05-5.51-4.75-10.26-10.22-10.26C212.77,224.14,193.97,224.14,175.18,224.14z M89.39,109.65
		c0-3.99-0.08-7.98,0.03-11.97c0.07-2.36-0.35-3.64-3.22-3.56c-7.64,0.19-15.3,0.13-22.94,0.03c-2.18-0.03-2.92,0.73-2.9,2.86
		c0.07,8.48,0.04,16.96,0.03,25.44c0,1.42,0.08,2.37,2,2.68c7.81,1.27,9.18,0.26,9.25-7.46c0.01-1-0.02-2,0.07-2.99
		c0.15-1.72,1.05-2.77,2.86-2.81c1.78-0.03,2.87,0.99,3.09,2.63c0.23,1.8,0.36,3.68,0.1,5.47c-0.58,4.03,0.69,5.95,4.98,5.11
		c0.48-0.09,1.01-0.08,1.49,0c3.97,0.68,5.77-0.59,5.27-4.97C89.08,116.67,89.4,113.14,89.39,109.65z M84.86,55.23
		c-0.01,0-0.01,0-0.02,0c0-2.99,0.16-5.99-0.03-8.97c-0.37-5.7-4.58-9.55-10.1-9.46c-5.26,0.08-9.41,3.89-9.64,9.39
		c-0.25,6.14,0.02,12.29-0.11,18.43c-0.05,2.26,0.89,2.6,2.91,2.79c6.25,0.59,3.57-4.02,3.93-6.67c0.3-2.2,0.01-4.63,3.09-4.66
		c3.06-0.03,3.15,2.32,3.1,4.59c-0.02,0.83,0.05,1.66-0.01,2.49c-0.17,2.49-0.2,4.31,3.43,4.31c3.61,0,3.58-1.76,3.48-4.29
		C84.78,60.55,84.86,57.89,84.86,55.23z M128.29,199.19c-0.53,2.81,0.05,4.91,2.33,5.34c2.88,0.55,3.49-1.79,3.74-4.09
		c0.16-1.49,0.28-2.98,0.52-4.46c2.64-16.1,8.1-30.22,25.3-36.16c1.66-0.57,3.01-1.76,2.47-3.76c-0.61-2.27-2.5-2.53-4.41-2.03
		c-5.24,1.38-9.76,4.11-13.71,7.76C133.45,172.02,129.69,185.42,128.29,199.19z M92.23,167.76c0-3.58-0.2-6.23,0.05-8.85
		c0.3-3.15-0.94-3.93-3.95-3.84c-6.8,0.22-13.6,0.07-20.41,0.07c-11.18,0-11.18,0-10.19,11.17c0.01,0.13,0.18,0.24,0.51,0.66
		c3.48-2.39,6.92-5.96,11.54-1.78c3.21,2.91,6.58,2.94,9.92-0.13c2.72-2.49,5.55-2.36,8.36,0.08
		C89.02,165.98,90.22,166.52,92.23,167.76z M92.23,201.84c0-2.54-0.22-4.22,0.04-5.82c0.84-5.01-3.66-5.57-6.2-7.82
		c-2.53-2.24-4.39-0.36-6.03,0.95c-3.66,2.94-6.95,2.83-10.63,0.03c-2.18-1.66-4.23-2.3-7.44-0.53c-5.67,3.12-4.38,7.51-4.18,13.08
		c4.48-4.81,8.85-5.66,13.34-1.67c2.88,2.56,5.35,1.54,7.82-0.48c2.99-2.45,5.96-3.33,9.18-0.31
		C89.05,200.14,90.3,200.66,92.23,201.84z"/>
</g>
</svg>
