<?xml version="1.0" encoding="utf-8"?>
<!-- Generator: Adobe Illustrator 24.0.2, SVG Export Plug-In . SVG Version: 6.00 Build 0)  -->
<svg version="1.1" id="Layer_1" xmlns="http://www.w3.org/2000/svg" xmlns:xlink="http://www.w3.org/1999/xlink" x="0px" y="0px"
	 viewBox="0 0 300 300" style="enable-background:new 0 0 300 300;" xml:space="preserve">
<style type="text/css">
	.st0{fill:#0D0D0D;}
	.st1{fill:#161617;}
	.st2{fill:#090A0A;}
	.st3{fill:#0F1010;}
	.st4{fill:#070707;}
	.st5{fill:#131212;}
	.st6{fill:#232121;}
</style>
<g>
	<path d="M187.97,215.2c3.49,1.87,5.56,4.31,5.07,8.03c-0.53,4.04-3.28,6.04-7.17,6.68c0,2.77,0,5.41,0,8.03
		c5.03,1.58,7.23,3.88,7.28,7.57c0.05,3.61-1.98,5.8-7.24,7.74c-0.11,1.88-0.08,3.82-0.36,5.73c-1.29,8.78-6.24,15.14-14.14,18.59
		c-16.43,7.19-32.67,7.13-47.79-3.55c-6.23-4.4-9.02-10.94-9.05-18.6c-0.01-1.23,0.12-2.31-1.61-2.81
		c-3.96-1.14-5.77-3.65-5.67-7.27c0.09-3.53,2.21-5.95,6.11-6.99c0.33-0.09,0.65-0.18,1.15-0.32c0-0.92,0-1.79,0-2.67
		c0-1.76,0-3.53,0-5.37c-3.77-0.78-6.63-2.5-7.2-6.5c-0.54-3.85,1.47-6.37,4.82-8.2c-2.29-6.67-5.93-12.45-10.71-17.49
		c-5.92-6.25-11.47-12.71-15.54-20.39c-22.97-43.32,2.67-96.62,50.84-105.59c35.35-6.58,71.27,14.5,82.07,48.83
		c8.37,26.6,2.48,50.56-15.2,71.88c-4.22,5.09-8.3,10.31-12.2,15.65C189.95,210.19,189.16,212.73,187.97,215.2z M149.64,214.63
		c5.75,0,11.5,0,17.25,0c5.11,0,5.17,0.02,6.83-4.78c3.8-10.95,10.73-19.68,18.63-28c22.3-23.5,20.51-61-4.6-82.91
		c-20.56-17.93-48.68-19.11-71.18-3.83c-19.84,13.48-29.39,40.28-22.8,63.23c3.15,10.96,9.22,19.93,17.14,27.89
		c7.36,7.4,12.6,16.14,15.67,26.11c0.55,1.77,1.31,2.35,3.14,2.32C136.37,214.56,143.01,214.63,149.64,214.63z M129.2,252.67
		c-0.9,5.25,0.4,8.6,5.02,10.9c10.39,5.16,20.97,5.13,31.33-0.11c4.41-2.23,5.7-5.6,4.85-10.79
		C156.67,252.67,142.92,252.67,129.2,252.67z M170.52,229.5c-13.9,0-27.62,0-41.43,0c0,2.85,0,5.52,0,8.17c13.94,0,27.67,0,41.43,0
		C170.52,234.86,170.52,232.25,170.52,229.5z"/>
	<path d="M42.62,150.42c-3.36,0-6.72,0.05-10.08-0.01c-4.76-0.09-8.01-3.15-7.98-7.41c0.03-4.08,3.24-7.16,7.86-7.23
		c6.99-0.1,13.97-0.1,20.96,0.01c4.74,0.07,7.78,3.01,7.8,7.22c0.03,4.33-3.12,7.31-7.94,7.41
		C49.69,150.47,46.16,150.42,42.62,150.42z"/>
	<path d="M256.95,135.81c3.8,0,7.61-0.12,11.41,0.03c3.95,0.15,6.85,3.12,7.07,6.9c0.21,3.67-2.53,7.31-6.44,7.45
		c-7.95,0.28-15.92,0.29-23.86,0c-3.94-0.14-6.59-3.72-6.38-7.47c0.21-3.84,3.05-6.72,7.06-6.88
		C249.52,135.7,253.24,135.81,256.95,135.81z"/>
	<path d="M157.11,35.92c0,3.54,0.05,7.08-0.01,10.61c-0.07,4.27-3,7.37-6.99,7.51c-4.13,0.15-7.52-2.81-7.61-7.15
		c-0.17-7.43-0.17-14.86,0.01-22.29c0.1-4.21,3.45-7.22,7.39-7.16c4.08,0.06,7.14,3.24,7.21,7.6
		C157.16,28.67,157.11,32.3,157.11,35.92z"/>
	<path d="M232.61,233.86c-0.98-0.54-2.91-1.16-4.23-2.42c-5.36-5.12-10.6-10.39-15.77-15.71c-3.02-3.11-2.9-7.26,0.03-10.19
		c2.92-2.91,7.09-2.98,10.19,0.04c5.31,5.18,10.54,10.45,15.74,15.74c2.4,2.44,2.96,5.33,1.63,8
		C238.86,232.05,236.66,233.64,232.61,233.86z"/>
	<path d="M232.61,51.88c3.86,0.29,6.01,1.63,7.38,4.15c1.35,2.49,1.2,4.97-0.46,7.23c-0.93,1.27-2.09,2.38-3.21,3.51
		c-4.36,4.39-8.7,8.79-13.13,13.11c-3.41,3.32-7.53,3.38-10.58,0.3c-3.05-3.08-2.95-7.17,0.4-10.58
		c4.95-5.04,9.91-10.09,15.03-14.95C229.5,53.27,231.53,52.51,232.61,51.88z"/>
	<path d="M89.26,211.63c-0.57,1-1.23,2.9-2.49,4.22c-5.07,5.3-10.3,10.47-15.54,15.61c-3.15,3.09-7.19,3.11-10.18,0.23
		c-2.95-2.84-3.2-7.09-0.22-10.21c5.13-5.37,10.39-10.63,15.74-15.78c2.32-2.23,5.25-2.95,8.34-1.52
		C87.64,205.46,88.94,207.76,89.26,211.63z"/>
	<path d="M89.23,74.12C89,78,87.6,80.22,84.97,81.6c-2.5,1.31-4.99,1.09-7.23-0.59c-1.26-0.95-2.34-2.14-3.45-3.28
		c-4.33-4.42-8.7-8.8-12.94-13.3c-3.13-3.32-3.02-7.38,0.08-10.37c2.94-2.84,7.09-2.86,10.19,0.22c5.2,5.18,10.31,10.43,15.32,15.79
		C88.12,71.36,88.72,73.19,89.23,74.12z"/>
</g>
</svg>
