<?xml version="1.0" encoding="utf-8"?>
<!-- Generator: Adobe Illustrator 24.0.2, SVG Export Plug-In . SVG Version: 6.00 Build 0)  -->
<svg version="1.1" id="Layer_1" xmlns="http://www.w3.org/2000/svg" xmlns:xlink="http://www.w3.org/1999/xlink" x="0px" y="0px"
	 viewBox="0 0 300 300" style="enable-background:new 0 0 300 300;" xml:space="preserve">
<style type="text/css">
	.st0{fill:#0D0D0D;}
	.st1{fill:#161617;}
	.st2{fill:#090A0A;}
	.st3{fill:#0F1010;}
	.st4{fill:#070707;}
	.st5{fill:#131212;}
	.st6{fill:#232121;}
</style>
<g>
	<path d="M97.39,141.21c8.29-5.35,15.72-10.15,24.69-15.95c8.36,13.33,16.49,26.27,24.12,38.43c5.41-9.25,10.85-19.2,16.99-28.7
		c2.52-3.91,6.21-7.26,9.93-10.16c28.67-22.41,61.48-9.83,67.66,25.98c1.24,7.16,1.96,14.52,1.88,21.78
		c-0.09,9.43-1.22,18.85-1.96,29.15c-15.24,0-29.79,0-44.34,0c-14.6,0-29.21,0-44.43,0c-3.09,20.92-13.42,36.12-34.48,40.67
		c-33.88,7.33-58.68-5.93-59.83-43.33c-0.55-17.75-0.09-35.54-0.09-53.95c8.95,0,17.66,0,27.55,0c0,13.46-0.01,26.7,0.01,39.95
		c0,3.81-0.19,7.66,0.19,11.44c1.41,13.86,9.3,21.28,20.51,19.55c11.33-1.74,19.47-12.59,15.68-24.94
		c-4.39-14.31-11.59-27.77-17.83-41.48C102.35,146.84,99.91,144.56,97.39,141.21z M216.09,172.79c-1.72-8.48-2.19-16.19-4.91-22.99
		c-3.88-9.69-12.39-11.45-20.93-5.27c-9.45,6.85-13.93,16.66-16.55,28.25C187.55,172.79,200.49,172.79,216.09,172.79z"/>
	<path d="M195.75,55.65c7.88,8.58,14.68,15.98,21.39,23.29c-6.78,6.83-14.06,14.16-20.67,20.82c-7.58-7.24-15.03-14.35-22.14-21.14
		C181.39,71.06,188.22,63.73,195.75,55.65z"/>
</g>
</svg>
