<?xml version="1.0" encoding="utf-8"?>
<!-- Generator: Adobe Illustrator 24.0.2, SVG Export Plug-In . SVG Version: 6.00 Build 0)  -->
<svg version="1.1" id="Layer_1" xmlns="http://www.w3.org/2000/svg" xmlns:xlink="http://www.w3.org/1999/xlink" x="0px" y="0px"
	 viewBox="0 0 300 300" style="enable-background:new 0 0 300 300;" xml:space="preserve">
<style type="text/css">
	.st0{fill:#0D0D0D;}
	.st1{fill:#161617;}
	.st2{fill:#090A0A;}
	.st3{fill:#0F1010;}
	.st4{fill:#070707;}
	.st5{fill:#131212;}
	.st6{fill:#232121;}
</style>
<g>
	<path class="st5" d="M150.15,149.8c-15.72-21.65-37.36-33.05-61.52-40.6c-7.33-2.29-14.45-4.89-20.76-9.44
		c-2.94-2.12-3.7-3.98-1.78-7.4c4.3-7.66,8.14-15.57,12.14-23.39c0.95-1.86,1.61-4.13,4.49-2.59c12.7,6.81,27.02,9.72,39.76,16.45
		c11.43,6.04,22.05,12.82,27.29,26.87c7.89-18.92,24.05-25.63,40.04-32.39c8.73-3.69,18.06-5.97,26.44-10.5
		c2.9-1.57,3.96-0.66,5.22,1.92c3.97,8.08,7.99,16.15,12.36,24.02c1.8,3.24,0.89,4.9-1.72,6.85c-6.24,4.66-13.38,7.3-20.71,9.57
		c-17.68,5.47-34.22,13.05-48.18,25.51C158.36,139,153.71,143.5,150.15,149.8z"/>
	<path class="st5" d="M226.46,67.61c8.37,0.81,13.46,4.2,16.66,11.3c3.6,7.98,8.07,15.6,12.57,23.13c2.07,3.46,1.28,5-1.92,6.9
		c-29.5,17.55-58.98,35.15-88.33,52.96c-6.16,3.74-8.45-1.89-11.49-4.36c-3-2.43,1.27-4.08,2.59-5.7
		c16.03-19.64,36.33-32.67,61.03-39.08c7.64-1.98,14.69-5.6,21.05-10.44c2.86-2.18,3.28-4.11,1.49-7.44
		C235.41,86.17,231.21,77.19,226.46,67.61z"/>
	<path class="st5" d="M73.33,67.51c-4.7,9.54-8.82,18.52-13.53,27.19c-2.03,3.72-1.24,5.69,1.85,7.99
		c6.61,4.91,13.94,8.48,21.8,10.5c24.81,6.36,44.65,20.05,60.59,39.68c1.05,1.29,4.52,2.75,1.42,4.73
		c-2.99,1.91-4.38,7.23-9.54,5.03c-0.85-0.36-1.6-0.94-2.4-1.42c-28.84-17.29-57.63-34.66-86.55-51.8
		c-3.93-2.33-5.16-3.95-2.38-8.29c4.35-6.8,8.27-13.94,11.57-21.3C59.36,72.64,64.3,68.51,73.33,67.51z"/>
	<path class="st5" d="M156.74,184.54c10.91-4.51,20.16-11.89,30.46-17.44c3.15-1.7,6.18-5.97,9.59-4.4
		c5.75,2.65,12.23,4.82,16.22,10.12c2.4,3.18,4.61,6.78,5.69,12.31c-6.57-3.91-12.19-7.18-17.72-10.58
		c-2.52-1.54-5.04-2.41-7.82-0.95c-1.35,0.71-1.37,1.68-0.02,2.54c0,0,0.09-0.17,0.09-0.17c-0.8-1.39-1.76-1.23-2.44-0.03
		c-0.61,1.08-1.39,2.53,0.96,2.71c-0.02,0.43,0.02,0.86,0.12,1.28c-0.86,0.05-1.56,0.32-1.4,1.36c0.14,0.92,0.8,0.5,1.31,0.4
		l-0.07-0.07c-0.54,4.38,3.19,6.09,5.66,8.3c9.73,8.68,20.82,15.49,32.38,21.39c8.99,4.59,9.75,13.96,13.81,21.4
		c0.94,1.72-0.96,3.46-2.18,4.78c-1.67,1.82-2.98-0.18-4.14-0.88c-26.2-15.71-52.35-31.51-78.53-47.26
		c-2.01-1.21-3.96-2.23-1.92-4.91L156.74,184.54z"/>
	<path class="st5" d="M140.02,181.63c-1.07,3.66,3.31,2.75,4.04,5.15c-0.32,1.59-2.12,2.03-3.43,2.82
		c-25.57,15.46-51.16,30.89-76.82,46.19c-1.62,0.97-3.25,4.01-5.78,1.34c-2.13-2.24-2.01-4.48-0.79-7.5
		c3.97-9.92,9.34-17.84,19.85-22.45c9.29-4.07,17.61-10.3,25.24-17.12c3.03-2.71,6.69-5.17,6.9-9.91c-0.02-0.94-0.04-1.88-0.06-2.83
		c-1.66-6.01-5.67-5.2-9.76-3.06c-3.9,2.04-7.57,4.51-11.34,6.77c-1.96,1.17-3.84,2.67-6.26,1.82c2.24-11.26,11.6-15.2,20.2-20
		c2.49-1.39,3.96,0.16,5.66,1.18c9.34,5.62,18.62,11.33,27.99,16.91c1.28,0.76,2.57,3.06,4.51,0.8L140.02,181.63z"/>
	<path class="st6" d="M156.8,184.46c-0.73-3.23-5.13,2.59-5.4-2.24c-0.21-3.66,0.22-6.28,3.96-8.52
		c36.86-21.99,73.5-44.32,110.39-66.26c4.73-2.81,5.12-5.08,2.75-9.66c-6.05-11.68-11.6-23.61-17.51-35.75
		c4.87,0.46,8.09,2.89,10.26,7.36c5.14,10.6,10.29,21.19,15.86,31.57c2.23,4.17,1.58,6.08-2.48,8.57
		c-37.99,23.27-75.83,46.77-113.65,70.31c-1.71,1.06-5.25,1.01-4.23,4.7C156.74,184.54,156.8,184.46,156.8,184.46z"/>
	<path class="st6" d="M140.15,181.75c-0.62-2.95-3.53-3.3-5.51-4.53C98.57,154.8,62.5,132.36,26.21,110.27
		c-5.24-3.19-5.72-5.52-2.81-10.68c5.45-9.67,10.16-19.76,14.89-29.81c1.9-4.05,4.88-6.3,9.73-8.05c-1.98,7.44-5.78,13.23-8.61,19.4
		c-2.7,5.88-5.31,11.82-8.49,17.45c-2.39,4.24-1.28,6.15,2.72,8.54c36.27,21.64,72.34,43.62,108.64,65.21
		c4.89,2.91,7.47,5.87,5.57,11.68c-3.14,1.32-4.64-3.51-7.83-2.4C140.02,181.63,140.15,181.75,140.15,181.75z"/>
	<path class="st6" d="M109.16,177.34c0.02,0.94,0.04,1.88,0.06,2.83c-7.33,3.04-13.5,8.05-20.38,11.86
		c-2.26,1.25-4.23,3.87-6.67-0.3c-2.62-4.48,1.46-4.55,3.36-5.78c3.69-2.4,7.76-4.23,11.44-6.64
		C100.83,176.8,104.68,175.44,109.16,177.34z"/>
	<path class="st6" d="M191.86,179.94c-0.1-0.42-0.14-0.85-0.12-1.28c-0.13-1.23,2.07-1.19,1.48-2.68c0,0-0.09,0.17-0.09,0.17
		c9.72,0.82,16.4,7.92,24.59,11.9c2.07,1.01,0.16,2.71-0.51,4.1c-1.07,2.22-2.29,2.4-4.36,1.09c-5.66-3.6-11.4-7.08-17.21-10.45
		c-1.12-0.65-2.04-2.86-3.94-1.15c0,0,0.07,0.07,0.07,0.07C192.58,181.15,192.61,180.56,191.86,179.94z"/>
</g>
</svg>
