<?xml version="1.0" encoding="utf-8"?>
<!-- Generator: Adobe Illustrator 24.0.2, SVG Export Plug-In . SVG Version: 6.00 Build 0)  -->
<svg version="1.1" id="Layer_1" xmlns="http://www.w3.org/2000/svg" xmlns:xlink="http://www.w3.org/1999/xlink" x="0px" y="0px"
	 viewBox="0 0 300 300" style="enable-background:new 0 0 300 300;" xml:space="preserve">
<style type="text/css">
	.st0{fill:#0D0D0D;}
	.st1{fill:#161617;}
	.st2{fill:#090A0A;}
	.st3{fill:#0F1010;}
	.st4{fill:#070707;}
	.st5{fill:#131212;}
	.st6{fill:#232121;}
</style>
<g>
	<path d="M253.5,120.58c-6.74-3.24-12.68-5.74-18.19-8.98c-1.64-0.97-2.88-3.98-2.91-6.08c-0.23-16.75-0.13-33.5-0.13-50.25
		c0-2.31,0-4.62,0-7.3c-61.2,0-121.77,0-182.87,0c0,58.01,0,116.07,0,174.89c34.01,0,68.19,0,103.23,0
		c-0.86,7.53-1.62,14.22-2.47,21.68c-2.46,0-4.54,0-6.62,0c-33.67,0-67.34,0.01-101.01-0.01c-11.37-0.01-14.87-3.36-14.88-14.47
		c-0.03-62.93-0.03-125.85,0-188.78c0.01-11.1,3.24-14.26,14.21-14.26c65.83-0.01,131.66-0.01,197.49,0
		c10.52,0,14.11,3.43,14.13,13.69c0.04,24.91,0.01,49.82,0.01,74.74C253.5,117.12,253.5,118.77,253.5,120.58z"/>
	<path d="M218.85,272.96c-14.48-1.69-28.79-3.18-43.05-5.11c-7.53-1.02-10.73-5.49-9.89-13.12c1.08-9.79,2.25-19.58,3.8-29.29
		c1.41-8.81,5.99-16.07,13.15-21.38c1.49-1.11,4.97-1.27,6.54-0.29c19.92,12.4,39.62,12.34,59.54-0.01
		c1.56-0.97,5.02-0.83,6.47,0.26c7.89,5.96,12.35,14.18,13.69,23.91c1.23,8.9,2.14,17.85,3.13,26.79c0.83,7.5-2.32,12.13-9.79,13.14
		C247.96,269.79,233.43,271.28,218.85,272.96z"/>
	<path d="M219.41,195.8c-19.33,0.03-35.11-15.36-35.34-34.48c-0.24-19.25,15.77-35.1,35.39-35.05
		c19.34,0.05,34.94,15.58,34.92,34.79C254.36,180.24,238.73,195.77,219.41,195.8z"/>
	<path d="M140.22,99.4c-17.23,0-34.47,0.04-51.7-0.02c-8.13-0.03-12.81-3.9-12.79-10.32c0.02-6.34,4.92-10.4,12.83-10.4
		c34.68-0.03,69.37-0.03,104.05,0c7.78,0.01,12.9,4.23,12.9,10.45c0,6.31-4.85,10.25-12.93,10.27
		C175.12,99.44,157.67,99.4,140.22,99.4z"/>
	<path d="M121.17,145.78c-11.19,0-22.39,0.08-33.58-0.03c-7.46-0.07-12.05-4.3-11.86-10.56c0.18-5.94,4.82-10.1,11.78-10.12
		c22.82-0.08,45.63-0.08,68.45,0c7.11,0.02,12.18,4.72,11.98,10.69c-0.19,5.93-4.77,9.92-11.9,9.99
		C144.42,145.87,132.8,145.78,121.17,145.78z"/>
	<path d="M118.42,171.58c9.7,0,19.39-0.06,29.09,0.02c7.57,0.06,12.42,3.98,12.67,10c0.27,6.36-4.62,10.96-12.37,11.02
		c-20.04,0.14-40.08,0.14-60.12-0.01c-7.52-0.06-12.11-4.42-11.99-10.63c0.12-6.17,4.86-10.28,12.33-10.36
		C98.17,171.49,108.3,171.58,118.42,171.58z"/>
</g>
</svg>
