<?xml version="1.0" encoding="utf-8"?>
<!-- Generator: Adobe Illustrator 24.0.2, SVG Export Plug-In . SVG Version: 6.00 Build 0)  -->
<svg version="1.1" id="Layer_1" xmlns="http://www.w3.org/2000/svg" xmlns:xlink="http://www.w3.org/1999/xlink" x="0px" y="0px"
	 viewBox="0 0 300 300" style="enable-background:new 0 0 300 300;" xml:space="preserve">
<style type="text/css">
	.st0{fill:#0D0D0D;}
	.st1{fill:#161617;}
	.st2{fill:#090A0A;}
	.st3{fill:#0F1010;}
</style>
<g>
	<path class="st2" d="M134.59,20.28c28.51,0,57.03,0.01,85.54-0.04c1.48,0,1.85,0.32,1.85,1.83c-0.05,36.12-0.05,72.25-0.01,108.37
		c0,1.35-0.24,1.93-1.72,1.77c-1.38-0.15-2.79-0.09-4.19-0.01c-0.93,0.05-1.19-0.31-1.09-1.15c0.04-0.36,0.01-0.72,0.01-1.09
		c0-33.64-0.01-67.28,0.04-100.92c0-1.5-0.36-1.84-1.85-1.84c-52.42,0.04-104.85,0.04-157.27,0c-1.46,0-1.73,0.41-1.73,1.78
		c0.03,52.48,0.03,104.96,0,157.44c0,1.31,0.23,1.7,1.64,1.7c40.83-0.05,81.66-0.03,122.49-0.07c1.41,0,1.76,0.35,1.74,1.75
		c-0.08,7.4-0.05,14.8-0.03,22.2c0.02,7.26,3.25,12.66,9.63,16.12c0.61,0.33,0.93,0.63,0.91,1.38c-0.06,2.17-0.05,4.35-0.01,6.52
		c0.01,0.78-0.19,1.18-1.04,1.08c-0.25-0.03-0.52,0-0.78,0c-45.85,0-91.7,0.01-137.55,0c-11.91,0-21.56-7.57-24.4-19.03
		c-0.49-1.98-0.61-3.98-0.61-6c-0.01-7.5,0.03-15.01-0.04-22.51c-0.01-1.27,0.4-1.5,1.56-1.49c5.95,0.06,11.9-0.02,17.85,0.06
		c1.28,0.02,1.6-0.28,1.6-1.58c-0.04-41.87-0.03-83.74-0.03-125.61c0-12.89,0-25.77,0-38.66c0-2,0-2,2.08-2
		C77.67,20.28,106.13,20.28,134.59,20.28z M180.31,230.02c-5.34-5.52-7.48-11.83-7.35-19.04c0.09-4.86-0.01-9.73,0.04-14.59
		c0.01-1.02-0.28-1.29-1.29-1.29c-45.75,0.02-91.49,0.03-137.24,0c-1.11,0-1.36,0.32-1.35,1.38c0.06,5.17,0.02,10.35,0.03,15.53
		c0.01,10.4,7.61,18.01,18,18.01c42.43,0,84.87,0,127.3,0C178.95,230.02,179.45,230.02,180.31,230.02z"/>
	<path class="st2" d="M214.66,207.31c-2.02-1.37-3.92-2.67-5.63-4.23c-7.58-6.92-11.49-15.5-11.58-25.77
		c-0.06-7.55-0.04-15.11,0.01-22.66c0.01-1.15-0.2-1.74-1.49-1.54c-0.61,0.09-1.24,0.03-1.86,0.01c-2.35-0.07-3.64-1.32-3.64-3.5
		c0-2.19,1.33-3.46,3.66-3.46c25.56-0.01,51.12-0.01,76.68,0c2.24,0,3.56,1.26,3.6,3.35c0.04,2.23-1.2,3.49-3.51,3.62
		c-1.11,0.06-2.56-0.51-3.26,0.29c-0.67,0.77-0.2,2.18-0.21,3.31c-0.04,7.5,0.17,15.01-0.14,22.5c-0.47,11.49-6,20.27-15.26,26.86
		c-0.54,0.39-1.11,0.74-1.79,1.2c1.31,0.95,2.58,1.79,3.77,2.74c8.74,7.03,13.34,16.11,13.4,27.39c0.04,7.5,0.04,15.01-0.02,22.51
		c-0.01,1.32,0.36,1.76,1.63,1.59c0.66-0.09,1.35-0.04,2.01,0.01c2.28,0.17,3.45,1.5,3.36,3.76c-0.08,1.98-1.43,3.23-3.58,3.23
		c-25.61,0.01-51.22,0.01-76.83,0c-2.1,0-3.44-1.3-3.52-3.31c-0.08-2.09,1.07-3.44,3.15-3.65c0.82-0.08,1.66-0.13,2.48-0.04
		c1.11,0.12,1.36-0.29,1.35-1.36c-0.05-7.09,0.04-14.18-0.04-21.27c-0.15-13.46,5.46-23.79,16.67-31.14
		C214.25,207.64,214.39,207.52,214.66,207.31z M232.42,247.5c8.85,0,17.69-0.03,26.54,0.03c1.26,0.01,1.52-0.38,1.49-1.54
		c-0.08-2.95-0.02-5.9-0.03-8.85c-0.04-11.76-7.12-22-18.11-26.24c-2.91-1.12-2.84-1.12-2.94-4.25c-0.04-1.38,0.31-2,1.73-2.51
		c10.95-3.99,17.47-11.7,19.09-23.34c0.56-4.06,0.09-8.17,0.27-12.24c0.05-1.16-0.25-1.45-1.43-1.45
		c-10.76,0.05-21.52,0.03-32.28,0.03c-6.98,0-13.97,0.02-20.95-0.02c-1-0.01-1.33,0.23-1.29,1.27c0.08,2.07,0.04,4.14,0.02,6.21
		c-0.03,3.31-0.08,6.62,0.82,9.85c2.74,9.84,8.97,16.42,18.6,19.75c1.2,0.42,1.72,0.93,1.51,2.17c-0.05,0.3-0.01,0.62-0.01,0.93
		c0,2.61-0.03,2.54-2.46,3.5c-10.19,4.02-16.37,11.37-18.15,22.25c-0.71,4.36-0.14,8.78-0.33,13.17c-0.05,1.14,0.34,1.33,1.38,1.32
		C214.73,247.48,223.58,247.5,232.42,247.5z M232.46,160.14c8.9,0,17.79-0.01,26.69,0.02c0.96,0,1.38-0.17,1.3-1.24
		c-0.1-1.39-0.11-2.8,0-4.19c0.11-1.27-0.25-1.64-1.58-1.63c-13.34,0.06-26.69,0.03-40.03,0.03c-4.4,0-8.79,0.02-13.19-0.02
		c-0.86-0.01-1.19,0.21-1.14,1.12c0.07,1.5,0.1,3.01-0.01,4.5c-0.09,1.16,0.26,1.45,1.43,1.44
		C214.77,160.11,223.61,160.14,232.46,160.14z M232.48,254.54c-8.89,0-17.79,0.01-26.68-0.02c-0.96,0-1.38,0.16-1.3,1.24
		c0.1,1.44,0.12,2.9,0,4.34c-0.1,1.2,0.31,1.43,1.45,1.42c10.24-0.05,20.47-0.03,30.71-0.03c7.5,0,14.99-0.02,22.49,0.02
		c0.97,0,1.38-0.18,1.3-1.25c-0.1-1.44-0.12-2.9,0-4.34c0.1-1.22-0.34-1.41-1.45-1.41C250.16,254.57,241.32,254.54,232.48,254.54z"
		/>
	<path class="st3" d="M144.97,160.15c-11.12,0-22.24-0.02-33.37,0.03c-1.18,0-1.63-0.24-1.53-1.49c0.12-1.44,0.1-2.9,0-4.34
		c-0.08-1.08,0.35-1.38,1.32-1.25c0.31,0.04,0.62,0.01,0.93,0.01c21.99,0,43.97,0.02,65.96-0.03c1.43,0,1.89,0.36,1.74,1.77
		c-0.19,1.73,0.72,4.06-0.34,5.05c-0.92,0.86-3.23,0.26-4.93,0.26C164.83,160.15,154.9,160.15,144.97,160.15z"/>
	<path class="st2" d="M145.08,76.27c-11.18,0-22.36-0.02-33.53,0.03c-1.13,0-1.55-0.23-1.46-1.43c0.11-1.6,0.05-3.21,0.02-4.81
		c-0.02-0.67,0.19-0.97,0.88-0.88c0.25,0.03,0.52,0.01,0.78,0.01c22.2,0,44.4,0.01,66.6-0.03c1.32,0,1.85,0.24,1.69,1.66
		c-0.15,1.33-0.11,2.69-0.01,4.03c0.09,1.15-0.23,1.47-1.42,1.46c-10.45-0.05-20.91-0.03-31.36-0.03
		C146.53,76.27,145.8,76.27,145.08,76.27z"/>
	<path class="st2" d="M145.13,97.14c11.13,0,22.25,0.02,33.38-0.03c1.19,0,1.63,0.25,1.53,1.51c-0.12,1.54-0.06,3.1-0.01,4.66
		c0.02,0.73-0.19,1.06-0.95,0.96c-0.36-0.05-0.72-0.01-1.09-0.01c-22.1,0-44.19-0.01-66.29,0.03c-1.26,0-1.74-0.24-1.62-1.58
		c0.13-1.39,0.1-2.8,0.01-4.19c-0.07-1.08,0.25-1.39,1.35-1.38c4.5,0.07,9,0.03,13.51,0.03C131.67,97.14,138.4,97.14,145.13,97.14z"
		/>
	<path class="st2" d="M144.97,132.19c-11.12,0-22.25-0.02-33.37,0.03c-1.21,0.01-1.61-0.28-1.52-1.51c0.11-1.49,0.08-3,0.01-4.5
		c-0.04-0.91,0.28-1.21,1.15-1.1c0.46,0.05,0.93,0.01,1.4,0.01c21.89,0,43.78,0.02,65.66-0.04c1.44,0,1.87,0.38,1.74,1.78
		c-0.12,1.33-0.11,2.7,0,4.03c0.09,1.14-0.33,1.33-1.38,1.33C167.43,132.17,156.2,132.19,144.97,132.19z"/>
	<path class="st2" d="M92.63,151.42c2.94,0.01,5.18,2.26,5.19,5.2c0,2.89-2.29,5.25-5.16,5.29c-2.91,0.05-5.29-2.38-5.27-5.35
		C87.41,153.63,89.67,151.41,92.63,151.42z"/>
	<path class="st2" d="M87.38,128.63c0.01-2.93,2.26-5.18,5.21-5.18c3.02,0,5.27,2.29,5.23,5.31c-0.04,2.89-2.41,5.2-5.28,5.15
		C89.63,133.87,87.37,131.55,87.38,128.63z"/>
	<path class="st2" d="M92.66,67.5c2.94,0.03,5.17,2.3,5.15,5.24c-0.02,3-2.34,5.25-5.36,5.19c-2.91-0.06-5.12-2.37-5.07-5.32
		C87.43,69.69,89.72,67.48,92.66,67.5z"/>
	<path class="st2" d="M92.58,95.48c2.96-0.01,5.22,2.21,5.24,5.14c0.03,3-2.29,5.32-5.27,5.29c-2.91-0.03-5.17-2.32-5.16-5.24
		C87.39,97.74,89.63,95.49,92.58,95.48z"/>
	<path class="st3" d="M71.64,205.56c0.01,1.91-1.64,3.57-3.53,3.56c-1.91-0.01-3.54-1.68-3.5-3.59c0.04-1.86,1.61-3.42,3.47-3.45
		C70,202.04,71.63,203.63,71.64,205.56z"/>
	<path class="st3" d="M40.17,209.12c-1.89,0.01-3.57-1.67-3.55-3.56c0.02-1.84,1.6-3.44,3.45-3.49c1.92-0.05,3.58,1.54,3.62,3.46
		C43.72,207.42,42.06,209.11,40.17,209.12z"/>
	<path class="st3" d="M57.66,205.52c0.04,1.9-1.6,3.58-3.5,3.6c-1.89,0.02-3.57-1.65-3.56-3.55c0.01-1.84,1.58-3.44,3.43-3.5
		C55.97,202.01,57.63,203.59,57.66,205.52z"/>
	<path class="st3" d="M99.59,205.54c0.02,1.93-1.59,3.57-3.49,3.57c-1.93-0.01-3.52-1.62-3.5-3.57c0.02-1.87,1.56-3.43,3.43-3.47
		C97.96,202.03,99.57,203.6,99.59,205.54z"/>
	<path class="st3" d="M85.62,205.65c-0.04,1.92-1.73,3.54-3.61,3.46c-1.88-0.08-3.4-1.65-3.41-3.52c-0.01-1.92,1.63-3.54,3.55-3.52
		C84.08,202.09,85.66,203.71,85.62,205.65z"/>
	<path class="st3" d="M113.57,205.6c-0.01,1.93-1.65,3.56-3.55,3.51c-1.95-0.05-3.48-1.66-3.43-3.63c0.05-1.88,1.59-3.41,3.47-3.41
		C112.01,202.06,113.58,203.64,113.57,205.6z"/>
	<path class="st3" d="M120.59,205.51c0.03-1.95,1.66-3.5,3.59-3.44c1.94,0.07,3.43,1.69,3.36,3.66c-0.06,1.86-1.68,3.41-3.52,3.38
		C122.08,209.08,120.56,207.48,120.59,205.51z"/>
	<path class="st3" d="M141.53,205.51c0.03,1.96-1.5,3.58-3.44,3.61c-1.94,0.03-3.51-1.55-3.51-3.53c0-1.91,1.48-3.45,3.36-3.51
		C139.88,202.01,141.49,203.55,141.53,205.51z"/>
	<path class="st3" d="M155.51,205.53c0.02,1.97-1.52,3.57-3.45,3.58c-1.95,0.01-3.49-1.56-3.48-3.55c0.01-1.9,1.49-3.44,3.37-3.49
		C153.89,202.02,155.49,203.57,155.51,205.53z"/>
	<path class="st3" d="M169.49,205.6c-0.01,1.96-1.6,3.55-3.52,3.51c-1.95-0.04-3.45-1.62-3.41-3.62c0.03-1.9,1.55-3.41,3.44-3.42
		C167.95,202.06,169.5,203.61,169.49,205.6z"/>
	<path class="st3" d="M239.41,188.09c1.92-0.01,3.58,1.62,3.57,3.52c-0.01,1.9-1.69,3.54-3.59,3.51c-1.85-0.03-3.44-1.61-3.48-3.46
		C235.88,189.75,237.49,188.11,239.41,188.09z"/>
	<path class="st3" d="M225.52,188.09c1.92,0.04,3.54,1.73,3.46,3.61c-0.08,1.87-1.67,3.41-3.52,3.42c-1.9,0.01-3.55-1.65-3.53-3.56
		C221.95,189.63,223.58,188.06,225.52,188.09z"/>
	<path class="st3" d="M235.92,237.07c-0.01,1.96-1.59,3.53-3.53,3.49c-1.94-0.03-3.45-1.64-3.41-3.62c0.04-1.91,1.56-3.41,3.45-3.42
		C234.36,233.51,235.94,235.11,235.92,237.07z"/>
	<path class="st3" d="M249.9,237.08c-0.01,1.92-1.52,3.46-3.42,3.49c-1.95,0.03-3.53-1.56-3.52-3.54c0.01-1.94,1.5-3.46,3.42-3.5
		C248.33,233.49,249.92,235.09,249.9,237.08z"/>
	<path class="st3" d="M225.44,230.04c-1.97-0.01-3.53-1.58-3.5-3.53c0.03-1.94,1.63-3.45,3.61-3.41c1.91,0.04,3.43,1.56,3.44,3.44
		C229,228.46,227.39,230.04,225.44,230.04z"/>
	<path class="st3" d="M239.47,230.04c-1.97,0.02-3.56-1.54-3.56-3.48c0-1.87,1.53-3.42,3.42-3.46c1.99-0.05,3.6,1.44,3.65,3.39
		C243.03,228.39,241.42,230.02,239.47,230.04z"/>
	<path class="st3" d="M214.99,236.99c0.03-1.97,1.64-3.53,3.58-3.46c1.88,0.07,3.37,1.62,3.38,3.51c0.01,1.96-1.56,3.54-3.5,3.53
		C216.51,240.56,214.96,238.95,214.99,236.99z"/>
	<path class="st2" d="M235.92,202.05c0.02,2.01-1.5,3.52-3.51,3.5c-1.95-0.01-3.41-1.47-3.43-3.43c-0.02-1.95,1.42-3.46,3.35-3.5
		C234.36,198.57,235.9,200.05,235.92,202.05z"/>
</g>
</svg>
