<?xml version="1.0" encoding="utf-8"?>
<!-- Generator: Adobe Illustrator 24.0.2, SVG Export Plug-In . SVG Version: 6.00 Build 0)  -->
<svg version="1.1" id="Layer_1" xmlns="http://www.w3.org/2000/svg" xmlns:xlink="http://www.w3.org/1999/xlink" x="0px" y="0px"
	 viewBox="0 0 300 300" style="enable-background:new 0 0 300 300;" xml:space="preserve">
<style type="text/css">
	.st0{fill:#0D0D0D;}
	.st1{fill:#161617;}
</style>
<g>
	<path class="st0" d="M52.93,281.76c-1.86-0.72-3.88-0.77-5.79-1.34c-9.95-2.96-17.45-8.69-21.22-18.66
		c-1.62-4.28-2.13-8.76-2.13-13.31c0.01-13.62,0.02-27.25-0.02-40.87c0-1.04,0.24-1.38,1.32-1.34c2.28,0.09,4.57,0.09,6.85,0
		c1.11-0.05,1.31,0.33,1.31,1.36c-0.03,13.53-0.01,27.07-0.03,40.6c-0.01,4.03,0.44,7.95,2.16,11.64
		c3.06,6.57,8.52,10.03,15.32,11.69c2.31,0.57,4.67,0.81,7.05,0.81c28.1-0.01,56.2-0.01,84.3-0.01c0.47,0,0.95,0,1.42,0
		c0.02-0.07,0.05-0.14,0.07-0.22c-6.45-3.79-12.9-7.59-19.56-11.51c8.83-3.36,17.47-6.65,26.09-9.93c0.33,0.31,0.17,0.62,0.1,0.9
		c-1.43,6.46-2.82,12.93-4.33,19.37c-0.31,1.32,0.08,1.41,1.21,1.41c30.25-0.03,60.5-0.01,90.75-0.04
		c5.19-0.01,10.39,0.24,15.59-0.2c9.97-0.85,16.72-7.04,18.42-16.88c0.35-2.04,0.52-4.08,0.52-6.15
		c-0.01-66.73-0.01-133.46,0-200.18c0-3.79-0.35-7.51-1.79-11.06c-2.62-6.43-8.2-10.2-15.14-10.2c-65.83,0-131.66,0-197.5,0
		c-0.49,0-0.98,0-1.96,0c0.82,0.74,1.39,1.19,1.9,1.72c7.04,7.27,12.39,15.73,17.17,24.57c9,16.68,15.78,34.3,21.73,52.26
		c2.7,8.14,5.15,16.36,7.4,24.64c0.24,0.89,0.1,1.3-0.77,1.74c-12.74,6.39-25.45,12.81-38.16,19.27c-0.87,0.44-1.38,0.35-2.02-0.38
		c-4.39-5.01-8.02-10.54-11.4-16.24c-12.2-20.61-22.08-42.27-28.83-65.28c-2.76-9.43-4.8-19-4.74-28.91
		c0.03-4.14,0.55-8.21,2.1-12.09C22.66,23.16,27,20,33.02,18.73c2.26-0.48,4.48-0.48,6.73-0.48c71.79-0.01,143.58-0.01,215.38-0.01
		c12.68,0,22.76,8.08,25.58,20.48c0.73,3.21,1.05,6.45,1.05,9.73c0,67.31,0.03,134.62-0.02,201.93c-0.01,8.06-2.3,15.47-7.68,21.66
		c-5.11,5.89-11.83,8.6-19.43,9.46c-0.36,0.04-0.82-0.21-1.09,0.26C186.66,281.76,119.79,281.76,52.93,281.76z"/>
	<path class="st0" d="M148.44,242.35c0.19,0.86-0.17,1.24-0.98,1.59c-9.61,4.1-19.21,8.23-28.78,12.4
		c-0.91,0.39-1.37,0.27-1.97-0.47c-14.05-17.18-26.09-35.65-35.79-55.62c-6.35-13.06-11.39-26.59-14.43-40.83
		c-0.28-1.31,0.03-1.85,1.17-2.42c12.61-6.33,25.21-12.7,37.78-19.11c0.94-0.48,1.39-0.41,2.04,0.44
		c10.1,13.22,18.2,27.6,24.83,42.82c7.23,16.6,12.27,33.84,14.95,51.75C147.72,236.03,148.05,239.2,148.44,242.35z"/>
	<path class="st0" d="M186.16,131.41c18.37,0,36.75,0.02,55.12-0.04c1.35,0,1.57,0.38,1.55,1.62c-0.08,5.11-0.06,10.22-0.01,15.32
		c0.01,0.95-0.24,1.16-1.18,1.16c-36.97-0.03-73.94-0.03-110.91,0.01c-1.07,0-1.21-0.33-1.2-1.27c0.05-5.2,0.05-10.4,0-15.59
		c-0.01-1,0.23-1.24,1.24-1.24C149.24,131.42,167.7,131.41,186.16,131.41z"/>
	<path class="st1" d="M205.03,103.13c-12.36,0-24.73-0.01-37.09,0.02c-1.08,0-1.45-0.21-1.44-1.37c0.06-5.46,0.05-10.93,0.01-16.39
		c-0.01-0.93,0.24-1.2,1.19-1.2c24.9,0.03,49.81,0.03,74.71,0c0.92,0,1.21,0.2,1.2,1.17c-0.05,5.46-0.05,10.93,0,16.39
		c0.01,1.09-0.22,1.42-1.37,1.41C229.84,103.11,217.43,103.13,205.03,103.13z"/>
	<path class="st1" d="M205.03,206.92c-11.83,0-23.66-0.02-35.49,0.03c-1.14,0-1.52-0.21-1.5-1.45c0.08-5.69,0.05-11.38,0.01-17.07
		c-0.01-0.92,0.22-1.21,1.18-1.21c23.89,0.03,47.77,0.02,71.66,0c0.85,0,1.14,0.18,1.13,1.1c-0.05,5.83-0.05,11.65,0,17.48
		c0.01,1-0.35,1.15-1.23,1.14C228.87,206.91,216.95,206.92,205.03,206.92z"/>
</g>
</svg>
