<?xml version="1.0" encoding="utf-8"?>
<!-- Generator: Adobe Illustrator 24.0.2, SVG Export Plug-In . SVG Version: 6.00 Build 0)  -->
<svg version="1.1" id="Layer_1" xmlns="http://www.w3.org/2000/svg" xmlns:xlink="http://www.w3.org/1999/xlink" x="0px" y="0px"
	 viewBox="0 0 300 300" style="enable-background:new 0 0 300 300;" xml:space="preserve">
<style type="text/css">
	.st0{fill:#0D0D0D;}
	.st1{fill:#161617;}
	.st2{fill:#090A0A;}
	.st3{fill:#0F1010;}
	.st4{fill:#070707;}
	.st5{fill:#131212;}
	.st6{fill:#232121;}
</style>
<g>
	<path d="M73.03,202.05c6.28-1.28,12.57-2.7,18.91-3.82c4.77-0.85,9.59-1.7,14.41-1.9c29.47-1.23,58.95-2.28,88.43-3.39
		c0.64-0.02,1.38-0.24,1.89,0.01c9.12,4.5,13.74-2.09,18.96-7.5c5.75-5.95,11.62-11.8,17.57-17.56c8.22-7.95,19.06-8.24,26.77-0.87
		c7.86,7.51,8.12,19.01-0.04,27.25c-23.44,23.69-46.91,47.36-70.89,70.49c-3.67,3.54-10.18,5.96-15.31,5.84
		c-25.45-0.62-50.88-2.05-76.29-3.69c-6.83-0.44-13.53-2.67-20.32-3.91c-3.3-0.6-5.22,0.57-6.57,4.15
		c-1.94,5.14-6.26,7.81-12.02,7.68c-3.82-0.08-7.64,0.08-11.46-0.04c-7.56-0.23-12.81-5.24-12.87-12.86
		c-0.15-20.16-0.34-40.34,0.23-60.49c0.1-3.6,2.88-8.28,5.88-10.43C50.41,183.81,67.5,189.12,73.03,202.05z M209.66,198.76
		c5.19,7.27,6.47,14.53,2.29,21.98c-4.33,7.71-11.42,9.94-19.96,9.69c-12.09-0.35-24.2,0.02-36.3-0.22
		c-1.79-0.04-3.54-1.77-5.32-2.72c1.76-0.75,3.51-2.14,5.28-2.16c12.95-0.19,25.9-0.01,38.85-0.13c8.62-0.08,14.45-5.77,14.36-13.64
		c-0.1-8.14-5.72-13.43-14.53-13.21c-12.73,0.31-25.45,0.82-38.18,1.34c-19.3,0.78-38.6,1.57-57.88,2.51
		c-8.33,0.41-10.33,2.66-10.33,10.66c0,12.52,0,25.05,0,37.57c0,8.53,0.9,9.65,9.24,11.17c1.66,0.3,3.38,0.35,5.07,0.44
		c23.74,1.19,47.47,2.55,71.22,3.37c3.68,0.13,8.49-1.14,11-3.59c24.31-23.72,48.32-47.75,72.2-71.89
		c5.59-5.66,5.13-13.55-0.19-18.84c-5.21-5.19-13.26-5.41-18.88-0.02C228.27,180.02,219.21,189.26,209.66,198.76z M66.36,232.03
		c0-7.2,0-14.4,0-21.6c0-16.31,0-16.31-16.12-16.18c-8.73,0.07-10.88,2.15-10.91,10.8c-0.04,15.88-0.01,31.76-0.01,47.64
		c0,16.69,0.94,17.61,17.61,17.07c6.9-0.22,9.34-2.66,9.41-9.79C66.42,250.66,66.35,241.35,66.36,232.03z M82.16,257
		c0-17.02,0-33.76,0-50.51c-3.51,0-6.57,0-9.8,0c0,16.99,0,33.58,0,50.51C75.77,257,78.82,257,82.16,257z"/>
	<path d="M97.74,161.71c-4.67,0-8.46,0.14-12.23-0.03c-8.22-0.36-13.79-5.24-13.97-13.49c-0.37-16.97-0.39-33.96,0.03-50.93
		c0.21-8.42,6.14-13.36,14.71-13.43c12.03-0.1,24.07-0.03,36.77-0.03c0-13.82-0.01-26.92,0-40.02c0.01-14.68,3.89-18.63,18.31-18.63
		c36.08,0,72.17-0.02,108.25,0.01c11.25,0.01,16.22,5.01,16.24,16.35c0.03,15.07,0.04,30.14,0,45.21
		c-0.03,11.26-4.99,16.15-16.36,16.24c-2.92,0.02-5.84,0-9.65,0c0,6.3,0.16,11.96-0.09,17.6c-0.08,1.9-1.22,3.75-1.87,5.63
		c-1.64-0.76-3.49-1.24-4.87-2.32c-5.68-4.44-11.21-9.06-16.81-13.6c-0.12-0.1-0.38-0.01-1.58-0.01c0,8.96,0,17.95,0,26.93
		c0,3.18,0.1,6.37-0.03,9.55c-0.4,9.63-5.57,14.89-15.21,14.96c-21.22,0.14-42.45-0.14-63.67,0.23c-3.64,0.06-7.77,1.74-10.75,3.92
		c-7.18,5.25-13.77,11.3-20.72,16.88c-1.36,1.09-3.25,1.52-4.9,2.26c-0.53-1.71-1.46-3.4-1.52-5.13
		C97.62,174.15,97.74,168.44,97.74,161.71z M233.99,117.8c0.16-2.85,0.29-4.28,0.31-5.71c0.19-14.17,0.18-14.17,14.63-14.27
		c8.71-0.06,11.65-2.77,11.69-11.23c0.08-15.07,0.09-30.13,0-45.2c-0.05-8.14-3.09-11.15-11.19-11.15
		c-36.71-0.04-73.42-0.04-110.13,0c-8.12,0.01-11,2.99-11.02,11.17c-0.04,14.85-0.02,29.71,0,44.56
		c0.01,9.32,2.61,11.84,12.19,11.85c21.22,0.01,42.44-0.16,63.66,0.17c3.43,0.05,7.28,1.72,10.12,3.77
		C220.74,106.44,226.73,111.82,233.99,117.8z M122.48,88.98c-12.43,0-24.51-0.16-36.59,0.07c-5.35,0.1-8.82,2.94-8.83,8.74
		c-0.03,16.77-0.07,33.54,0.04,50.32c0.03,5.37,3.17,8.13,8.43,8.33c4.03,0.15,8.07,0.19,12.1,0.01c3.81-0.18,5.42,1.28,5.25,5.19
		c-0.21,4.72-0.05,9.45-0.05,15.42c7.26-6.01,13.43-10.84,19.26-16.05c3.69-3.29,7.51-4.7,12.56-4.63
		c21.02,0.28,42.04,0.13,63.05,0.11c8.88-0.01,11.21-2.36,11.25-11.36c0.05-11.68-0.26-23.36,0.13-35.03
		c0.18-5.48-1.26-7.35-7.04-7.25c-20.8,0.35-41.61,0.16-62.42,0.13C129.05,102.94,125.23,99.91,122.48,88.98z"/>
	<path d="M131.63,230.28c-1.25,0-2.62,0.31-3.72-0.09c-1.16-0.42-2.08-1.53-3.1-2.34c0.98-0.87,1.82-2.05,2.96-2.51
		c1.08-0.44,2.54-0.4,3.7-0.08c2.32,0.64,4.55,1.62,6.82,2.45c-2.04,1.19-4.08,2.38-6.12,3.57
		C131.99,230.96,131.81,230.62,131.63,230.28z"/>
	<path d="M193.96,58.21c-11.23,0-22.46,0.11-33.69-0.12c-1.61-0.03-3.19-1.73-4.79-2.66c1.51-0.79,3.02-2.25,4.54-2.26
		c22.88-0.15,45.77-0.14,68.65,0c1.47,0.01,2.93,1.5,4.4,2.3c-1.59,0.91-3.17,2.58-4.78,2.61C216.84,58.32,205.4,58.21,193.96,58.21
		z"/>
	<path d="M180.34,74.58c-6.78,0-13.56,0.15-20.32-0.11c-1.54-0.06-3.03-1.56-4.54-2.4c1.55-1.02,3.09-2.89,4.66-2.91
		c13.76-0.23,27.53-0.21,41.29-0.02c1.51,0.02,2.99,1.57,4.49,2.41c-1.54,1.01-3.04,2.83-4.62,2.9
		C194.32,74.76,187.33,74.58,180.34,74.58z"/>
	<path d="M224.74,74.59c-0.24-0.01-1.81,0.21-3.13-0.26c-1-0.35-1.68-1.58-2.51-2.41c1.79-0.97,3.64-2.82,5.36-2.72
		c2.95,0.18,5.83,1.58,8.74,2.47c-1.79,0.97-3.54,2-5.37,2.88C227.32,74.79,226.59,74.59,224.74,74.59z"/>
	<path d="M142.36,117.93c-11.03,0-22.07,0.11-33.1-0.12c-1.69-0.03-3.35-1.63-5.02-2.51c1.57-0.97,3.13-2.76,4.7-2.77
		c22.7-0.18,45.41-0.18,68.11,0c1.57,0.01,3.13,1.81,4.7,2.78c-1.67,0.87-3.33,2.47-5.02,2.51
		C165.28,118.04,153.82,117.93,142.36,117.93z"/>
	<path d="M156.38,133.89c-6.97-0.01-13.95,0.15-20.91-0.14c-1.39-0.06-2.7-1.8-4.05-2.76c1.29-0.82,2.57-2.35,3.87-2.36
		c14.15-0.17,28.31-0.19,42.46,0.02c1.34,0.02,2.65,1.86,3.98,2.85c-1.48,0.8-2.93,2.24-4.44,2.29
		C170.32,134.04,163.35,133.9,156.38,133.89z"/>
	<path d="M110.81,134c-1.47-0.11-3-0.01-4.39-0.4c-0.83-0.23-2.11-1.33-2.03-1.86c0.16-1.05,0.93-2.44,1.82-2.82
		c1.28-0.54,2.97-0.66,4.34-0.33c2.56,0.62,5,1.68,7.5,2.56c-2.22,1.3-4.44,2.6-6.67,3.89C111.18,134.69,111,134.34,110.81,134z"/>
</g>
</svg>
